<svg width="114" height="106" viewBox="0 0 114 106" fill="none" xmlns="http://www.w3.org/2000/svg">
<path d="M109.561 35.0036H88.1669L71.8415 2.41672C71.3199 1.37774 70.4069 0.588526 69.3034 0.222692C68.1999 -0.143142 66.9963 -0.0556292 65.9573 0.465979C64.9183 0.987588 64.1291 1.90056 63.7633 3.00406C63.3975 4.10756 63.485 5.3112 64.0066 6.35017L78.3973 35.1315H35.577L49.9677 6.35017C50.4893 5.3112 50.5768 4.10756 50.2109 3.00406C49.8451 1.90056 49.0559 0.987588 48.0169 0.465979C46.978 -0.0556292 45.7743 -0.143142 44.6708 0.222692C43.5673 0.588526 42.6543 1.37774 42.1327 2.41672L25.7753 35.0036H4.38117C3.80582 35.0036 3.23611 35.1169 2.70457 35.3371C2.17302 35.5573 1.69004 35.88 1.28321 36.2868C0.876385 36.6937 0.553671 37.1767 0.333497 37.7082C0.113323 38.2397 0 38.8095 0 39.3848V56.9734C0 57.5488 0.113323 58.1185 0.333497 58.65C0.553671 59.1816 0.876385 59.6645 1.28321 60.0714C1.69004 60.4782 2.17302 60.8009 2.70457 61.0211C3.23611 61.2413 3.80582 61.3546 4.38117 61.3546H7.5791L17.7005 101.872C17.9393 102.819 18.4875 103.659 19.258 104.259C20.0286 104.858 20.9774 105.183 21.9538 105.182H92.0364C93.0128 105.183 93.9616 104.858 94.7322 104.259C95.5028 103.659 96.0509 102.819 96.2897 101.872L106.411 61.3546H109.609C110.771 61.3546 111.885 60.893 112.707 60.0714C113.529 59.2497 113.99 58.1354 113.99 56.9734V39.3848C113.99 38.8054 113.875 38.2317 113.652 37.697C113.429 37.1623 113.102 36.6772 112.69 36.2698C112.278 35.8623 111.79 35.5406 111.252 35.3233C110.715 35.1059 110.14 34.9973 109.561 35.0036ZM8.82629 43.766H105.244V52.5922H8.76233L8.82629 43.766ZM88.6147 96.4199H25.3276L16.5653 61.3546H97.377L88.6147 96.4199Z" fill="#CD293D"/>
<path d="M56.9681 88.0399C58.13 88.0399 59.2444 87.5783 60.066 86.7567C60.8877 85.9351 61.3492 84.8207 61.3492 83.6588V66.1821C61.3492 65.0201 60.8877 63.9057 60.066 63.0841C59.2444 62.2625 58.13 61.8009 56.9681 61.8009C55.8061 61.8009 54.6918 62.2625 53.8701 63.0841C53.0485 63.9057 52.5869 65.0201 52.5869 66.1821V83.7707C52.6161 84.9131 53.0906 85.999 53.909 86.7965C54.7275 87.5941 55.8253 88.0403 56.9681 88.0399Z" fill="#CD293D"/>
<path d="M73.4413 87.9103C73.7927 87.9922 74.1519 88.0351 74.5127 88.0382C75.4884 88.0349 76.4352 87.7059 77.2028 87.1034C77.9704 86.5009 78.5149 85.6594 78.7499 84.7124L83.1311 67.1238C83.3017 66.5563 83.3555 65.9601 83.2891 65.3713C83.2227 64.7825 83.0376 64.2132 82.7449 63.698C82.4522 63.1828 82.058 62.7323 81.5862 62.3738C81.1144 62.0153 80.5748 61.7562 80 61.6122C79.4252 61.4683 78.8271 61.4424 78.242 61.5362C77.657 61.63 77.097 61.8415 76.596 62.1579C76.095 62.4743 75.6634 62.8891 75.3273 63.3771C74.9912 63.8651 74.7576 64.4162 74.6406 64.9971L70.2434 82.5858C69.9672 83.7156 70.1483 84.9088 70.7471 85.9058C71.346 86.9029 72.3142 87.6233 73.4413 87.9103Z" fill="#CD293D"/>
<path d="M35.1904 84.7137C35.4234 85.6529 35.9607 86.4885 36.7186 87.0902C37.4764 87.6918 38.4122 88.0257 39.3797 88.0396C39.7404 88.0364 40.0997 87.9935 40.451 87.9117C41.5781 87.6246 42.5464 86.9043 43.1452 85.9072C43.7441 84.9101 43.9251 83.7169 43.6489 82.5871L39.3797 65.0624C39.2627 64.4816 39.0291 63.9304 38.693 63.4424C38.3569 62.9544 37.9253 62.5396 37.4243 62.2232C36.9233 61.9068 36.3633 61.6953 35.7782 61.6015C35.1931 61.5077 34.5951 61.5336 34.0203 61.6775C33.4455 61.8215 32.9059 62.0806 32.4341 62.4391C31.9623 62.7976 31.5681 63.2481 31.2754 63.7633C30.9827 64.2785 30.7976 64.8478 30.7312 65.4366C30.6648 66.0254 30.7186 66.6216 30.8892 67.1891L35.1904 84.7137Z" fill="#CD293D"/>
</svg>
