<svg width="76" height="47" viewBox="0 0 76 47" fill="none" xmlns="http://www.w3.org/2000/svg">
<path d="M54.3215 0.226524C54.1381 0.224871 54.0039 0.248176 53.952 0.25231C53.9546 0.252111 53.8124 0.23651 53.5826 0.278095C53.3856 0.314885 53.2753 0.362109 53.2131 0.381439C53.2043 0.381331 53.1955 0.381331 53.1867 0.381439C53.1257 0.401198 53.0407 0.435591 52.9228 0.484782C52.9125 0.488916 52.9071 0.479822 52.8965 0.484782V0.510568C52.8897 0.511171 52.888 0.492545 52.8437 0.510568C52.8349 0.51046 52.8261 0.51046 52.8173 0.510568C52.4992 0.645518 52.2181 0.83333 51.9465 1.05312L48.7531 3.61092C48.6593 3.58048 48.5616 3.56309 48.4628 3.55925L12.1219 3.53347C12.0868 3.53174 12.0515 3.53174 12.0164 3.53347C11.8773 3.54861 11.7427 3.59067 11.6203 3.6572C11.498 3.72373 11.3904 3.8134 11.3038 3.92101L1.16946 15.9089C1.04552 16.0605 0.967709 16.2432 0.944957 16.4361C0.922204 16.629 0.955427 16.8243 1.04082 16.9996C1.12621 17.1748 1.26032 17.323 1.42777 17.4271C1.59522 17.5312 1.78924 17.587 1.9876 17.5881H3.59744V39.1613C3.59746 39.4354 3.70869 39.6982 3.90666 39.892C4.10463 40.0858 4.37313 40.1947 4.6531 40.1947H25.8719C25.967 40.2164 26.0647 40.225 26.1622 40.2204H32.6017C32.708 40.2275 32.8148 40.2189 32.9184 40.1947H38.2759V45.6461C38.2759 45.9202 38.3872 46.1831 38.5851 46.3769C38.7831 46.5707 39.0516 46.6795 39.3316 46.6796H69.1274C69.4073 46.6795 69.6758 46.5707 69.8738 46.3769C70.0718 46.1831 70.183 45.9202 70.183 45.6461L70.1302 20.3014C71.5663 21.4256 73.6947 21.3689 74.8544 19.9913C76.0226 18.6036 75.6833 16.5281 74.2474 15.3667L56.5123 1.05398C56.2406 0.834188 55.9595 0.646376 55.6414 0.511425C55.6238 0.510995 55.6062 0.510995 55.5886 0.511425C55.5713 0.502348 55.5537 0.493755 55.5358 0.48564C55.5273 0.482333 55.4581 0.471842 55.4303 0.459855C55.3847 0.440013 55.3761 0.414062 55.2719 0.382397C55.089 0.322872 54.9525 0.301128 54.8233 0.279054C54.8145 0.278947 54.8057 0.278947 54.7969 0.279054C54.6608 0.256153 54.5528 0.237468 54.4274 0.227382C54.4098 0.226951 54.3922 0.226951 54.3746 0.227382C54.3571 0.226951 54.3395 0.226951 54.3219 0.227382L54.3215 0.226524ZM54.2424 2.2934C54.272 2.29588 54.2965 2.29092 54.3215 2.2934C54.3643 2.29836 54.4092 2.31174 54.4535 2.31918C54.5371 2.33348 54.5914 2.33835 54.6118 2.34497C54.6206 2.34507 54.6294 2.34507 54.6382 2.34497C54.6167 2.33835 54.6737 2.36372 54.691 2.37075C54.7082 2.37819 54.6935 2.37653 54.7437 2.39654C54.7613 2.39697 54.7789 2.39697 54.7965 2.39654C54.8385 2.42547 54.8826 2.4514 54.9285 2.47404C55.0123 2.51943 55.0792 2.58463 55.166 2.6549L72.9011 16.9675C73.5444 17.4878 73.5955 18.224 73.2178 18.6727C72.8436 19.1172 72.0662 19.2186 71.4232 18.6985L54.9025 5.31508C54.7132 5.16176 54.4752 5.07787 54.2295 5.07787C53.9838 5.07787 53.7458 5.16176 53.5565 5.31508L37.0088 18.6985C36.3609 19.2225 35.6201 19.1235 35.2406 18.6727C34.8628 18.224 34.914 17.4878 35.5573 16.9675L53.2923 2.6549C53.396 2.57101 53.4815 2.49821 53.5826 2.44821C53.6188 2.43293 53.654 2.41567 53.6882 2.39654C53.7058 2.39697 53.7234 2.39697 53.741 2.39654C53.7415 2.39633 53.7748 2.3681 53.8466 2.34487C53.9546 2.3113 53.9985 2.31523 53.9785 2.31903C53.9126 2.33102 53.9441 2.33242 54.1105 2.31903C54.2116 2.31068 54.2302 2.29506 54.2424 2.29324L54.2424 2.2934ZM12.6232 5.60039L46.2726 5.62617L34.2119 15.3661C34.1537 15.4131 34.1081 15.4712 34.0535 15.5211H4.65382H4.25795L12.624 5.60014L12.6232 5.60039ZM54.2162 7.46057L68.0192 18.6217C68.0191 18.6303 68.0191 18.6389 68.0192 18.6475L68.072 44.6123H40.3875V39.4709C40.4523 39.2691 40.4523 39.0527 40.3875 38.8509L40.4138 18.6212L54.2168 7.46007L54.2162 7.46057ZM5.70821 17.5882L32.9181 17.614C32.7998 18.4515 33.0201 19.297 33.6042 19.9909C34.7582 21.3618 36.8709 21.4203 38.3019 20.301L38.2756 38.1273H33.657V26.4495C33.6571 26.441 33.6571 26.4324 33.657 26.4239C33.6338 25.3554 32.9199 24.5014 32.0999 24.047C31.2799 23.5926 30.3297 23.4243 29.3815 23.4269C28.4334 23.4269 27.4804 23.5927 26.6631 24.047C25.8459 24.5013 25.1301 25.3591 25.106 26.4239C25.1059 26.4324 25.1059 26.441 25.106 26.4495V38.1273H5.70804V17.5876L5.70821 17.5882ZM10.0628 24.0214C9.80147 24.0471 9.55935 24.1673 9.38368 24.3584C9.208 24.5494 9.11137 24.7977 9.11267 25.0548V34.0201C9.11269 34.2942 9.22392 34.557 9.42189 34.7508C9.61986 34.9446 9.88836 35.0535 10.1683 35.0536H20.5138C20.7938 35.0535 21.0623 34.9446 21.2602 34.7508C21.4582 34.557 21.5694 34.2942 21.5695 34.0201V25.0548C21.5694 24.7807 21.4582 24.5179 21.2602 24.3241C21.0623 24.1303 20.7938 24.0214 20.5138 24.0214H10.1683C10.1332 24.0197 10.0979 24.0197 10.0628 24.0214ZM46.668 24.5898C46.4067 24.6155 46.1646 24.7357 45.9889 24.9267C45.8132 25.1178 45.7166 25.3661 45.7179 25.6232V38.6189C45.7179 38.893 45.8291 39.1558 46.0271 39.3496C46.2251 39.5434 46.4936 39.6523 46.7736 39.6523H61.6845C61.9645 39.6523 62.233 39.5434 62.431 39.3496C62.6289 39.1558 62.7402 38.893 62.7402 38.6189V25.6232C62.7402 25.3491 62.6289 25.0863 62.431 24.8925C62.233 24.6987 61.9645 24.5898 61.6845 24.5898H46.7736C46.7384 24.588 46.7032 24.588 46.668 24.5898ZM29.3813 25.494C30.0283 25.494 30.6605 25.6431 31.0441 25.8557C31.4178 26.0628 31.5349 26.187 31.5455 26.45V26.4756V38.1278H27.2173V26.4756V26.45C27.2279 26.2004 27.316 26.0649 27.6923 25.8557C28.079 25.6408 28.7344 25.4958 29.3814 25.494H29.3813ZM11.224 26.0882H14.2854V28.4652H11.224V26.0882ZM16.3967 26.0882H19.4581V28.4652H16.3967V26.0882ZM47.8292 26.6566H53.1603V31.023H47.8292V26.6566ZM55.2716 26.6566H60.6291V31.023H55.2716V26.6566ZM11.2244 30.532H14.2858V32.9865H11.2244V30.532ZM16.3971 30.532H19.4586V32.9865H16.3971V30.532ZM47.8296 33.0898H53.1607V37.5853H47.8296V33.0898ZM55.272 33.0898H60.6296V37.5853H55.272V33.0898Z" fill="#FEE8EA"/>
</svg>
