<svg width="46" height="51" viewBox="0 0 46 51" fill="none" xmlns="http://www.w3.org/2000/svg">
<path d="M5.93205 22.2565L6.01115 49.4962C6.01115 50.1242 6.48573 50.5953 7.11851 50.5953H38.7574C39.3902 50.5953 39.8648 50.1242 39.8648 49.4962L39.7857 22.178C41.2886 23.3555 43.5824 23.3555 44.7688 21.864C46.0344 20.3725 45.6389 18.1744 44.1361 16.9184L25.3109 1.53232C24.9945 1.29682 24.7572 1.06131 24.3617 0.982807C24.3617 0.982807 24.3617 0.982807 24.2826 0.982807C24.2826 0.982807 24.2826 0.982807 24.2035 0.982807H24.1244C24.0453 0.982807 24.0453 0.904278 23.9662 0.904278C23.8081 0.825777 23.6499 0.825796 23.4917 0.825796C23.3335 0.825796 23.2544 0.747314 23.0962 0.747314C23.0962 0.747314 23.0962 0.747314 23.0171 0.747314C23.0171 0.747314 23.0171 0.747314 22.938 0.747314C22.7798 0.747314 22.6216 0.747314 22.5425 0.747314C22.5425 0.747314 22.3843 0.747314 22.147 0.747314C21.9097 0.825815 21.8306 0.825796 21.7515 0.825796C21.6724 0.825796 21.5933 0.904278 21.4351 0.904278C21.4351 0.904278 21.4351 0.904278 21.356 0.904278C21.0396 1.06128 20.7233 1.21829 20.4069 1.45379L17.0057 4.20132C16.9266 4.20132 5.37837 13.6214 1.3444 16.9184C0.078844 17.9389 -0.55393 19.823 0.237043 21.1575C2.45177 24.69 5.93205 22.2565 5.93205 22.2565ZM22.938 2.78831H23.0171C23.0962 2.78831 23.0962 2.78831 23.1753 2.78831C23.2544 2.78831 23.3335 2.78831 23.3335 2.78831C23.3335 2.78831 23.3335 2.78831 23.4126 2.78831C23.4126 2.78831 23.4126 2.78831 23.4917 2.78831C23.4917 2.78831 23.4917 2.78831 23.5708 2.78831C23.6499 2.78831 23.6499 2.8668 23.729 2.8668C23.808 2.9453 23.8871 3.02381 23.9662 3.02381L42.7914 18.41C43.5033 18.9595 43.5033 19.7445 43.1078 20.2155C42.7123 20.6865 41.9213 20.765 41.2095 20.2155L23.6498 5.77133C23.2544 5.45733 22.6216 5.45733 22.2261 5.77133L4.66649 20.2155C3.95462 20.765 3.16364 20.6865 2.76816 20.2155C2.37267 19.7445 2.45177 18.9595 3.08455 18.41L21.9097 3.02381C21.9888 2.94531 22.147 2.86681 22.2261 2.78831C22.2261 2.78831 22.3052 2.78833 22.3052 2.70983C22.3052 2.70983 22.3052 2.70983 22.3843 2.70983C22.3843 2.70983 22.3843 2.7098 22.4634 2.6313C22.5425 2.6313 22.6216 2.6313 22.6216 2.6313C22.5425 2.6313 22.6216 2.6313 22.7798 2.6313C22.938 2.8668 22.938 2.78831 22.938 2.78831ZM14.4746 6.39933L1.66079 16.9184C1.58169 16.9969 1.5817 16.997 1.5026 17.0755L14.4746 6.39933ZM22.938 8.36184L37.571 20.3725L37.6501 48.3187H8.22587V42.7452C8.30497 42.5097 8.30497 42.2742 8.22587 42.0387V20.294L22.938 8.36184ZM14.9491 26.8095C14.3955 26.888 13.9209 27.359 13.9209 27.9085V41.8817C13.9209 42.5097 14.3955 42.9806 15.0282 42.9806H30.8477C31.4805 42.9806 31.9551 42.5097 31.9551 41.8817V27.9085C31.9551 27.2805 31.4805 26.8095 30.8477 26.8095H15.0282H14.9491ZM16.1356 29.0076H21.8306V33.7176H16.1356V29.0076ZM24.0453 29.0076H29.7404V33.7176H24.0453V29.0076ZM16.1356 35.9941H21.8306V40.8612H16.1356V35.9941ZM24.0453 35.9941H29.7404V40.8612H24.0453V35.9941Z" fill="#FEE8EA"/>
</svg>
