<svg width="54" height="38" viewBox="0 0 54 38" fill="none" xmlns="http://www.w3.org/2000/svg">
<path d="M1.89476 25.3108V2.33572C1.89476 1.05905 2.92968 0.0240479 4.20644 0.0240479H27.1697C28.4464 0.0240479 29.4813 1.05905 29.4813 2.33572V25.3109C29.4813 25.7364 29.1364 26.0814 28.7107 26.0814H2.66532C2.23968 26.0814 1.89476 25.7364 1.89476 25.3108ZM20.4383 33.1815C20.4383 35.8295 18.2916 37.9761 15.6438 37.9761C12.9959 37.9761 10.8492 35.8295 10.8492 33.1815C10.8492 30.5335 12.9959 28.387 15.6438 28.387C18.2916 28.387 20.4383 30.5335 20.4383 33.1815ZM18.0409 33.1815C18.0409 31.8576 16.9676 30.7843 15.6437 30.7843C14.3197 30.7843 13.2463 31.8576 13.2463 33.1815C13.2463 34.5055 14.3197 35.5789 15.6437 35.5789C16.9676 35.5789 18.0409 34.5055 18.0409 33.1815ZM11.5143 28.3869H0.770559C0.345 28.3869 0 28.7319 0 29.1575V31.4953C0 31.9208 0.345 32.2658 0.770559 32.2658H9.38215C9.60697 30.7231 10.3856 29.3604 11.5143 28.3869ZM45.5239 33.1815C45.5239 35.8295 43.3773 37.9761 40.7294 37.9761C38.0815 37.9761 35.9349 35.8295 35.9349 33.1815C35.9349 30.5335 38.0815 28.387 40.7294 28.387C43.3773 28.3869 45.5239 30.5335 45.5239 33.1815ZM43.1268 33.1815C43.1268 31.8576 42.0534 30.7843 40.7294 30.7843C39.4054 30.7843 38.3321 31.8576 38.3321 33.1815C38.3321 34.5055 39.4054 35.5789 40.7294 35.5789C42.0534 35.5789 43.1268 34.5055 43.1268 33.1815ZM54 29.1575V31.4953C54 31.9208 53.655 32.2658 53.2294 32.2658H46.9909C46.5446 29.2056 43.9109 26.8458 40.7296 26.8458C37.5476 26.8458 34.9138 29.2057 34.4676 32.2658H21.9054C21.6805 30.7232 20.9019 29.3604 19.7733 28.3869H31.6845V6.34654C31.6845 5.49543 32.3745 4.80543 33.2256 4.80543H40.5002C42.5485 4.80543 44.4629 5.82287 45.609 7.52043L50.2987 14.4664C50.9866 15.4852 51.3542 16.6865 51.3542 17.9159V28.3869H53.2294C53.655 28.3869 54 28.7319 54 29.1575ZM46.1831 14.6443L42.433 9.31549C42.2886 9.11043 42.0536 8.9884 41.8028 8.9884H35.9532C35.5278 8.9884 35.1827 9.3334 35.1827 9.75896V15.0877C35.1827 15.5134 35.5277 15.8583 35.9532 15.8583H45.5531C46.1772 15.8583 46.5424 15.1548 46.1831 14.6443Z" fill="#CD293D"/>
</svg>
