<svg width="30" height="36" viewBox="0 0 30 36" fill="none" xmlns="http://www.w3.org/2000/svg">
<path d="M18.5216 11.7392C17.8735 11.7392 17.3476 11.2133 17.3476 10.5652V0H2.08678C1.43871 0 0.912842 0.525867 0.912842 1.17394V34.8261C0.912842 35.4742 1.43871 36.0001 2.08678 36.0001H27.9128C28.5609 36.0001 29.0868 35.4742 29.0868 34.8261V11.7392H18.5216ZM6.78239 28.9565C6.13411 28.9565 5.60845 28.4309 5.60845 27.7826C5.60845 27.1342 6.13404 26.6086 6.78239 26.6086C7.43074 26.6086 7.95633 27.1342 7.95633 27.7826C7.95633 28.4309 7.43074 28.9565 6.78239 28.9565ZM6.78239 24.2608C6.13411 24.2608 5.60845 23.7352 5.60845 23.0869C5.60845 22.4385 6.13404 21.913 6.78239 21.913C7.43074 21.913 7.95633 22.4385 7.95633 23.0869C7.95633 23.7352 7.43074 24.2608 6.78239 24.2608ZM6.78239 19.5652C6.13411 19.5652 5.60845 19.0396 5.60845 18.3913C5.60845 17.743 6.13404 17.2174 6.78239 17.2174C7.43074 17.2174 7.95633 17.7429 7.95633 18.3913C7.95633 19.0396 7.43074 19.5652 6.78239 19.5652ZM23.2172 28.9565H11.4781C10.83 28.9565 10.3041 28.4306 10.3041 27.7826C10.3041 27.1345 10.83 26.6086 11.4781 26.6086H23.2172C23.8653 26.6086 24.3912 27.1345 24.3912 27.7826C24.3912 28.4306 23.8653 28.9565 23.2172 28.9565ZM23.2172 24.2608H11.4781C10.83 24.2608 10.3041 23.735 10.3041 23.0869C10.3041 22.4388 10.83 21.913 11.4781 21.913H23.2172C23.8653 21.913 24.3912 22.4388 24.3912 23.0869C24.3912 23.735 23.8653 24.2608 23.2172 24.2608ZM23.2172 19.5652H11.4781C10.83 19.5652 10.3041 19.0394 10.3041 18.3913C10.3041 17.7432 10.83 17.2174 11.4781 17.2174H23.2172C23.8653 17.2174 24.3912 17.7432 24.3912 18.3913C24.3911 19.0394 23.8653 19.5652 23.2172 19.5652Z" fill="#CD293D"/>
</svg>
