<svg width="902" height="861" viewBox="0 0 902 861" fill="none" xmlns="http://www.w3.org/2000/svg">
<circle cx="230.066" cy="136.628" r="27.2991" fill="white"/>
<circle cx="26.9607" cy="555.943" r="27.2991" fill="white"/>
<circle cx="409.15" cy="833.303" r="27.2991" fill="white"/>
<circle cx="857.947" cy="784.162" r="21.8393" fill="white"/>
<circle cx="874.325" cy="337.548" r="27.2991" fill="white"/>
<circle cx="623.174" cy="27.4324" r="27.2991" fill="white"/>
<circle cx="114.316" cy="527.551" r="38.2187" fill="white"/>
<circle cx="212.596" cy="501.344" r="42.5866" fill="white"/>
<circle cx="436.451" cy="727.38" r="43.6786" fill="white"/>
<circle cx="764.038" cy="364.849" r="43.6786" fill="white"/>
<circle cx="595.874" cy="133.352" r="43.6786" fill="white"/>
<circle cx="726.914" cy="650.942" r="39.3107" fill="white"/>
<circle cx="798.981" cy="723.013" r="32.7589" fill="white"/>
<circle cx="313.057" cy="223.983" r="46.9545" fill="white"/>
<circle cx="400.415" cy="311.342" r="53.5062" fill="white"/>
<circle cx="639.557" cy="563.583" r="63.3339" fill="white"/>
<path d="M431.356 416.91C413.885 444.864 389.134 428.557 378.942 416.91C322.159 390.702 282.85 444.209 277.389 467.14C273.021 485.485 256.438 478.946 244.791 473.486C262.469 495.453 252.126 516.491 252.126 516.491C261.121 505.817 267.562 502.083 277.389 506.451C322.16 533.75 368.022 542.485 404.057 502.083C432.885 469.761 455.379 488.615 463.023 502.083C476.127 542.485 447.631 544.669 431.356 571.968C397.505 628.751 460.831 650.513 480.495 648.406C511.07 645.13 533.212 612.981 515.437 577.428C505.61 557.773 511.07 541.393 520.898 529.382C520.898 529.382 584.231 450.761 626.818 450.761C669.404 450.761 690.152 425.645 686.876 388.518C684.255 358.817 651.934 343.748 619.174 355.76C603.887 364.495 587.07 379.346 567.852 355.76C543.828 326.277 586.416 301.161 591.875 291.334C595.572 285.397 602.235 276.046 601.703 255.299C600.83 221.229 573.676 212.712 560.209 212.712C535.093 203.977 500.15 241.102 520.897 281.505C538.474 315.733 529.96 333.365 520.897 339.38C501.99 348.253 453.195 381.967 431.356 416.91Z" fill="white"/>
<path d="M689.138 640.654C688.498 628.455 677.088 617.388 667.989 620.3C682.42 612.941 690.332 600.986 690.332 600.986C693.514 614.113 697.133 615.299 706.597 617.119C690.133 628.831 689.138 640.654 689.138 640.654Z" fill="white"/>
</svg>
