<svg width="27" height="24" viewBox="0 0 27 24" xmlns="http://www.w3.org/2000/svg">
<path d="M24.9992 7.98697H20.1175L16.3925 0.551436C16.2735 0.314367 16.0651 0.134287 15.8133 0.0508128C15.5615 -0.0326616 15.2869 -0.0126932 15.0498 0.106325C14.8128 0.225343 14.6327 0.433662 14.5492 0.685454C14.4657 0.937245 14.4857 1.21188 14.6047 1.44895L17.8883 8.01616H8.11779L11.4014 1.44895C11.5204 1.21188 11.5404 0.937245 11.4569 0.685454C11.3734 0.433662 11.1934 0.225343 10.9563 0.106325C10.7192 -0.0126932 10.4446 -0.0326616 10.1928 0.0508128C9.94099 0.134287 9.73267 0.314367 9.61366 0.551436L5.88129 7.98697H0.999674C0.868395 7.98697 0.738402 8.01283 0.617115 8.06306C0.495829 8.1133 0.385626 8.18694 0.292798 8.27977C0.199969 8.3726 0.126334 8.4828 0.0760958 8.60408C0.0258575 8.72537 0 8.85536 0 8.98664V12.9999C0 13.1312 0.0258575 13.2612 0.0760958 13.3825C0.126334 13.5038 0.199969 13.614 0.292798 13.7068C0.385626 13.7996 0.495829 13.8733 0.617115 13.9235C0.738402 13.9738 0.868395 13.9996 0.999674 13.9996H1.72936L4.03883 23.2448C4.09331 23.4608 4.21839 23.6524 4.39421 23.7893C4.57004 23.9261 4.78653 24.0003 5.00932 24H21.0005C21.2232 24.0003 21.4397 23.9261 21.6156 23.7893C21.7914 23.6524 21.9165 23.4608 21.9709 23.2448L24.2804 13.9996H25.0101C25.2752 13.9996 25.5295 13.8943 25.717 13.7068C25.9045 13.5193 26.0098 13.2651 26.0098 12.9999V8.98664C26.0098 8.85444 25.9836 8.72354 25.9326 8.60154C25.8817 8.47953 25.8071 8.36884 25.7131 8.27587C25.6191 8.1829 25.5076 8.10949 25.3851 8.0599C25.2625 8.01031 25.1313 7.98552 24.9992 7.98697ZM2.01394 9.98632H24.0141V12.0003H1.99935L2.01394 9.98632ZM20.2197 22.0007H5.77914L3.77979 13.9996H22.219L20.2197 22.0007Z"/>
<path d="M12.9992 21.0013C13.2643 21.0013 13.5186 20.8959 13.7061 20.7085C13.8935 20.521 13.9989 20.2667 13.9989 20.0016V16.0138C13.9989 15.7487 13.8935 15.4944 13.7061 15.307C13.5186 15.1195 13.2643 15.0142 12.9992 15.0142C12.7341 15.0142 12.4798 15.1195 12.2923 15.307C12.1048 15.4944 11.9995 15.7487 11.9995 16.0138V20.0271C12.0062 20.2878 12.1144 20.5356 12.3012 20.7176C12.4879 20.8995 12.7384 21.0013 12.9992 21.0013Z"/>
<path d="M16.7575 20.9717C16.8377 20.9904 16.9197 21.0002 17.002 21.0009C17.2246 21.0001 17.4406 20.9251 17.6158 20.7876C17.7909 20.6501 17.9152 20.4581 17.9688 20.242L18.9685 16.2287C19.0074 16.0992 19.0197 15.9632 19.0045 15.8288C18.9894 15.6945 18.9471 15.5646 18.8803 15.447C18.8136 15.3295 18.7236 15.2267 18.616 15.1449C18.5083 15.0631 18.3852 15.004 18.254 14.9711C18.1229 14.9383 17.9864 14.9324 17.8529 14.9538C17.7194 14.9752 17.5916 15.0234 17.4773 15.0956C17.363 15.1678 17.2645 15.2625 17.1878 15.3738C17.1111 15.4852 17.0578 15.6109 17.0311 15.7435L16.0278 19.7568C15.9648 20.0146 16.0061 20.2868 16.1428 20.5143C16.2794 20.7418 16.5003 20.9062 16.7575 20.9717Z"/>
<path d="M8.02988 20.2423C8.08304 20.4566 8.20565 20.6473 8.37858 20.7845C8.5515 20.9218 8.76501 20.998 8.98577 21.0012C9.06808 21.0005 9.15006 20.9907 9.23022 20.972C9.4874 20.9065 9.70834 20.7421 9.84498 20.5146C9.98162 20.2871 10.0229 20.0149 9.95991 19.7571L8.98577 15.7584C8.95908 15.6258 8.90578 15.5001 8.82909 15.3887C8.7524 15.2774 8.65391 15.1827 8.5396 15.1105C8.42528 15.0383 8.29751 14.9901 8.16401 14.9687C8.0305 14.9473 7.89405 14.9532 7.76289 14.986C7.63174 15.0189 7.50861 15.078 7.40095 15.1598C7.2933 15.2416 7.20336 15.3444 7.13657 15.4619C7.06979 15.5795 7.02754 15.7094 7.0124 15.8437C6.99725 15.9781 7.00951 16.1141 7.04845 16.2436L8.02988 20.2423Z"/>
</svg>
