<svg width="46" height="21" viewBox="0 0 46 21" fill="none" xmlns="http://www.w3.org/2000/svg">
<path d="M0 0.6875V17.9375C0 19.5245 1.29087 20.8125 2.875 20.8125H43.125C44.712 20.8125 46 19.5245 46 17.9375V0.6875H0ZM15.8125 12.1875H7.1875C6.394 12.1875 5.75 11.5435 5.75 10.75C5.75 9.9565 6.394 9.3125 7.1875 9.3125H15.8125C16.606 9.3125 17.25 9.9565 17.25 10.75C17.25 11.5435 16.606 12.1875 15.8125 12.1875ZM35.9375 15.0625C34.8278 15.0625 33.8273 14.6313 33.0625 13.9441C32.2977 14.6313 31.2973 15.0625 30.1875 15.0625C27.807 15.0625 25.875 13.1305 25.875 10.75C25.875 8.3695 27.807 6.4375 30.1875 6.4375C31.2973 6.4375 32.2977 6.86875 33.0625 7.55587C33.8273 6.86875 34.8278 6.4375 35.9375 6.4375C38.318 6.4375 40.25 8.3695 40.25 10.75C40.25 13.1305 38.318 15.0625 35.9375 15.0625Z" fill="#CD293D"/>
</svg>
