<svg width="96" height="70" viewBox="0 0 96 70" fill="none" xmlns="http://www.w3.org/2000/svg">
<g clip-path="url(#clip0)">
<path d="M6.62053 40.7358L6.69962 67.9756C6.69962 68.6036 7.17421 69.0746 7.80699 69.0746H39.4459C40.0787 69.0746 40.5533 68.6036 40.5533 67.9756L40.4742 40.6574C41.977 41.8349 44.2709 41.8349 45.4573 40.3433C46.7229 38.8518 46.3274 36.6538 44.8245 35.3978L25.9994 20.0117C25.683 19.7762 25.4457 19.5407 25.0502 19.4622C25.0502 19.4622 25.0502 19.4622 24.9711 19.4622C24.9711 19.4622 24.9711 19.4622 24.892 19.4622H24.8129C24.7338 19.4622 24.7338 19.3836 24.6547 19.3836C24.4965 19.3051 24.3383 19.3052 24.1801 19.3052C24.0219 19.3052 23.9428 19.2267 23.7846 19.2267C23.7846 19.2267 23.7847 19.2267 23.7056 19.2267C23.7056 19.2267 23.7056 19.2267 23.6265 19.2267C23.4683 19.2267 23.3101 19.2267 23.231 19.2267C23.231 19.2267 23.0728 19.2267 22.8355 19.2267C22.5982 19.3052 22.5191 19.3052 22.44 19.3052C22.3609 19.3052 22.2818 19.3836 22.1236 19.3836C22.1236 19.3836 22.1236 19.3836 22.0445 19.3836C21.7281 19.5406 21.4117 19.6977 21.0953 19.9332L17.6942 22.6807C17.6151 22.6807 6.06684 32.1008 2.03288 35.3978C0.767321 36.4183 0.134547 38.3024 0.92552 39.6369C3.14025 43.1694 6.62053 40.7358 6.62053 40.7358ZM23.6265 21.2677H23.7056C23.7847 21.2677 23.7847 21.2677 23.8637 21.2677C23.9428 21.2677 24.0219 21.2677 24.0219 21.2677C24.0219 21.2677 24.0219 21.2677 24.101 21.2677C24.101 21.2677 24.101 21.2677 24.1801 21.2677C24.1801 21.2677 24.1801 21.2677 24.2592 21.2677C24.3383 21.2677 24.3383 21.3462 24.4174 21.3462C24.4965 21.4247 24.5756 21.5032 24.6547 21.5032L43.4799 36.8893C44.1918 37.4388 44.1918 38.2238 43.7963 38.6948C43.4008 39.1659 42.6098 39.2444 41.8979 38.6948L24.3383 24.2507C23.9428 23.9367 23.3101 23.9367 22.9146 24.2507L5.35497 38.6948C4.64309 39.2444 3.85212 39.1659 3.45663 38.6948C3.06115 38.2238 3.14024 37.4388 3.77302 36.8893L22.5982 21.5032C22.6773 21.4247 22.8355 21.3462 22.9146 21.2677C22.9146 21.2677 22.9937 21.2677 22.9937 21.1892C22.9937 21.1892 22.9937 21.1892 23.0728 21.1892C23.0728 21.1892 23.0728 21.1892 23.1519 21.1107C23.231 21.1107 23.3101 21.1107 23.3101 21.1107C23.231 21.1107 23.3101 21.1107 23.4683 21.1107C23.6265 21.3462 23.6265 21.2677 23.6265 21.2677ZM15.163 24.8787L2.34927 35.3978C2.27017 35.4763 2.27017 35.4763 2.19108 35.5548L15.163 24.8787ZM23.6265 26.8412L38.2595 38.8519L38.3386 66.7981H8.91434V61.2246C8.99344 60.9891 8.99344 60.7535 8.91434 60.518V38.7733L23.6265 26.8412ZM15.6376 45.2889C15.0839 45.3674 14.6094 45.8384 14.6094 46.3879V60.3611C14.6094 60.9891 15.0839 61.46 15.7167 61.46H31.5362C32.169 61.46 32.6435 60.9891 32.6435 60.3611V46.3879C32.6435 45.7599 32.169 45.2889 31.5362 45.2889H15.7167H15.6376ZM16.8241 47.4869H22.5191V52.197H16.8241V47.4869ZM24.7338 47.4869H30.4288V52.197H24.7338V47.4869ZM16.8241 54.4735H22.5191V59.3405H16.8241V54.4735ZM24.7338 54.4735H30.4288V59.3405H24.7338V54.4735Z" fill="#FEE8EA"/>
</g>
<path d="M66.3423 61.8059C56.5757 61.8059 48.6375 53.8676 48.6375 44.101C48.6375 36.2565 55.4975 4.90964 66.3423 4.90964C77.1872 4.90964 84.0472 36.2565 84.0472 44.101C84.0472 53.852 76.0933 61.8059 66.3423 61.8059ZM66.3423 7.45677C58.7322 7.45677 51.1846 34.3969 51.1846 44.0854C51.1846 52.4456 57.9821 59.2432 66.3423 59.2432C74.7025 59.2432 81.5001 52.4456 81.5001 44.0854C81.4845 34.3969 73.9525 7.45677 66.3423 7.45677Z" fill="#FEE8EA"/>
<path d="M67.6082 40.0225H65.061V68.7285H67.6082V40.0225Z" fill="#FEE8EA"/>
<path d="M84.2815 56.4305H81.7344V68.7285H84.2815V56.4305Z" fill="#FEE8EA"/>
<path d="M72.3633 42.9668L70.5623 41.1657L65.4353 46.2927L67.2363 48.0937L72.3633 42.9668Z" fill="#FEE8EA"/>
<path d="M67.2466 50.4005L62.1196 45.2735L60.3186 47.0746L65.4455 52.2016L67.2466 50.4005Z" fill="#FEE8EA"/>
<path d="M83.0158 61.8059C79.953 61.8059 77.0465 60.634 74.8275 58.4931L73.7024 57.4149L74.9838 56.5242C79.0467 53.6801 81.4844 49.0391 81.4844 44.1011C81.4844 40.5695 80.3124 34.0532 78.5623 27.8807L78.3747 27.2088L78.8279 26.6931C80.1562 25.1773 81.5625 24.396 83.0158 24.396C90.3915 24.396 94.8295 44.6949 94.8295 49.9923C94.8295 56.5085 89.5321 61.8059 83.0158 61.8059ZM77.7653 57.6024C79.2967 58.665 81.125 59.2432 83.0158 59.2432C88.1257 59.2432 92.2824 55.0865 92.2824 49.9767C92.2824 43.4604 87.235 26.9275 83.0158 26.9275C82.3751 26.9275 81.7344 27.365 81.2188 27.8651C82.9377 34.1157 84.0472 40.4132 84.0472 44.0854C84.0472 49.3203 81.7188 54.2583 77.7653 57.6024Z" fill="#FEE8EA"/>
<defs>
<clipPath id="clip0">
<rect width="45.5601" height="50.0049" fill="white" transform="translate(0.688477 19.0394)"/>
</clipPath>
</defs>
</svg>
