<svg width="47" height="51" viewBox="0 0 47 51" fill="none" xmlns="http://www.w3.org/2000/svg">
<path d="M6.62053 21.7358L6.69962 48.9756C6.69962 49.6036 7.17421 50.0746 7.80699 50.0746H39.4459C40.0787 50.0746 40.5533 49.6036 40.5533 48.9756L40.4742 21.6574C41.977 22.8349 44.2709 22.8349 45.4573 21.3433C46.7229 19.8518 46.3274 17.6538 44.8245 16.3978L25.9994 1.01169C25.683 0.776189 25.4457 0.540678 25.0502 0.462177C25.0502 0.462177 25.0502 0.462177 24.9711 0.462177C24.9711 0.462177 24.9711 0.462177 24.892 0.462177H24.8129C24.7338 0.462177 24.7338 0.383648 24.6547 0.383648C24.4965 0.305147 24.3383 0.305166 24.1801 0.305166C24.0219 0.305166 23.9428 0.226685 23.7846 0.226685C23.7846 0.226685 23.7847 0.226685 23.7056 0.226685C23.7056 0.226685 23.7056 0.226685 23.6265 0.226685C23.4683 0.226685 23.3101 0.226685 23.231 0.226685C23.231 0.226685 23.0728 0.226685 22.8355 0.226685C22.5982 0.305185 22.5191 0.305166 22.44 0.305166C22.3609 0.305166 22.2818 0.383648 22.1236 0.383648C22.1236 0.383648 22.1236 0.383648 22.0445 0.383648C21.7281 0.540649 21.4117 0.69766 21.0953 0.933162L17.6942 3.68069C17.6151 3.68069 6.06684 13.1008 2.03288 16.3978C0.767321 17.4183 0.134547 19.3024 0.92552 20.6369C3.14025 24.1694 6.62053 21.7358 6.62053 21.7358ZM23.6265 2.26768H23.7056C23.7847 2.26768 23.7847 2.26768 23.8637 2.26768C23.9428 2.26768 24.0219 2.26768 24.0219 2.26768C24.0219 2.26768 24.0219 2.26768 24.101 2.26768C24.101 2.26768 24.101 2.26768 24.1801 2.26768C24.1801 2.26768 24.1801 2.26768 24.2592 2.26768C24.3383 2.26768 24.3383 2.34617 24.4174 2.34617C24.4965 2.42467 24.5756 2.50318 24.6547 2.50318L43.4799 17.8893C44.1918 18.4388 44.1918 19.2238 43.7963 19.6948C43.4008 20.1659 42.6098 20.2444 41.8979 19.6948L24.3383 5.2507C23.9428 4.9367 23.3101 4.9367 22.9146 5.2507L5.35497 19.6948C4.64309 20.2444 3.85212 20.1659 3.45663 19.6948C3.06115 19.2238 3.14024 18.4388 3.77302 17.8893L22.5982 2.50318C22.6773 2.42468 22.8355 2.34618 22.9146 2.26768C22.9146 2.26768 22.9937 2.2677 22.9937 2.1892C22.9937 2.1892 22.9937 2.1892 23.0728 2.1892C23.0728 2.1892 23.0728 2.18917 23.1519 2.11067C23.231 2.11067 23.3101 2.11067 23.3101 2.11067C23.231 2.11067 23.3101 2.11067 23.4683 2.11067C23.6265 2.34617 23.6265 2.26768 23.6265 2.26768ZM15.163 5.8787L2.34927 16.3978C2.27017 16.4763 2.27017 16.4763 2.19108 16.5548L15.163 5.8787ZM23.6265 7.84121L38.2595 19.8519L38.3386 47.7981H8.91434V42.2246C8.99344 41.9891 8.99344 41.7535 8.91434 41.518V19.7733L23.6265 7.84121ZM15.6376 26.2889C15.0839 26.3674 14.6094 26.8384 14.6094 27.3879V41.3611C14.6094 41.9891 15.0839 42.46 15.7167 42.46H31.5362C32.169 42.46 32.6435 41.9891 32.6435 41.3611V27.3879C32.6435 26.7599 32.169 26.2889 31.5362 26.2889H15.7167H15.6376ZM16.8241 28.4869H22.5191V33.197H16.8241V28.4869ZM24.7338 28.4869H30.4288V33.197H24.7338V28.4869ZM16.8241 35.4735H22.5191V40.3405H16.8241V35.4735ZM24.7338 35.4735H30.4288V40.3405H24.7338V35.4735Z" fill="#FEE8EA"/>
<path d="M18.3423 57.8059C8.57574 57.8059 0.637451 49.8676 0.637451 40.101C0.637451 32.2565 7.49751 0.909637 18.3423 0.909637C29.1872 0.909637 36.0472 32.2565 36.0472 40.101C36.0472 49.852 28.0933 57.8059 18.3423 57.8059ZM18.3423 3.45677C10.7322 3.45677 3.18458 30.3969 3.18458 40.0854C3.18458 48.4456 9.98213 55.2432 18.3423 55.2432C26.7025 55.2432 33.5001 48.4456 33.5001 40.0854C33.4845 30.3969 25.9525 3.45677 18.3423 3.45677Z" fill="#FEE8EA"/>
<path d="M2.60816 0.022522H0.0610352V28.7285H2.60816V0.022522Z" fill="#FEE8EA"/>
<path d="M7.24661 5.40052L2.11963 0.273529L0.318557 2.0746L5.44554 7.2016L7.24661 5.40052Z" fill="#FEE8EA"/>
<path d="M7.36333 1.96675L5.56226 0.16568L0.43527 5.29266L2.23635 7.09374L7.36333 1.96675Z" fill="#FEE8EA"/>
<path d="M10.0158 37.8059C6.95301 37.8059 4.04648 36.634 1.82751 34.4931L0.702393 33.4149L1.98377 32.5242C6.04667 29.6801 8.48442 25.0391 8.48442 20.1011C8.48442 16.5695 7.31242 10.0532 5.56225 3.88072L5.37473 3.20877L5.8279 2.6931C7.15616 1.17732 8.56255 0.395996 10.0158 0.395996C17.3915 0.395996 21.8295 20.6949 21.8295 25.9923C21.8295 32.5085 16.5321 37.8059 10.0158 37.8059ZM4.7653 33.6024C6.2967 34.665 8.125 35.2432 10.0158 35.2432C15.1257 35.2432 19.2824 31.0865 19.2824 25.9767C19.2824 19.4604 14.235 2.9275 10.0158 2.9275C9.37513 2.9275 8.73444 3.36504 8.21876 3.86509C9.93768 10.1157 11.0472 16.4132 11.0472 20.0854C11.0472 25.3203 8.71881 30.2583 4.7653 33.6024Z" fill="#FEE8EA"/>
<path d="M3.28149 0.43045H0.734375V12.7285H3.28149V0.43045Z" fill="#FEE8EA"/>
</svg>
