<svg width="22" height="38" viewBox="0 0 22 38" fill="none" xmlns="http://www.w3.org/2000/svg">
<path d="M10.0158 37.8059C6.95301 37.8059 4.04648 36.634 1.82751 34.4931L0.702393 33.4149L1.98377 32.5242C6.04667 29.6801 8.48442 25.0391 8.48442 20.1011C8.48442 16.5695 7.31242 10.0532 5.56225 3.88072L5.37473 3.20877L5.8279 2.6931C7.15616 1.17732 8.56255 0.395996 10.0158 0.395996C17.3915 0.395996 21.8295 20.6949 21.8295 25.9923C21.8295 32.5085 16.5321 37.8059 10.0158 37.8059ZM4.7653 33.6024C6.2967 34.665 8.125 35.2432 10.0158 35.2432C15.1257 35.2432 19.2824 31.0865 19.2824 25.9767C19.2824 19.4604 14.235 2.9275 10.0158 2.9275C9.37513 2.9275 8.73444 3.36504 8.21876 3.86509C9.93768 10.1157 11.0472 16.4132 11.0472 20.0854C11.0472 25.3203 8.71881 30.2583 4.7653 33.6024Z" fill="#FEE8EA"/>
</svg>
