<svg width="47" height="47" viewBox="0 0 47 47" fill="none" xmlns="http://www.w3.org/2000/svg">
<path d="M6.49284 21.7338L6.57194 45.6399C6.57194 46.2679 7.04652 46.7389 7.6793 46.7389H39.3182C39.951 46.7389 40.4256 46.2679 40.4256 45.6399L40.3465 21.6553C41.8493 22.8328 44.1432 22.8328 45.3296 21.3413C46.5952 19.8498 46.1997 17.6517 44.6969 16.3957L25.8717 1.00962C25.5553 0.774114 25.318 0.538603 24.9225 0.460102C24.9225 0.460102 24.9225 0.460102 24.8434 0.460102C24.8434 0.460102 24.8434 0.460102 24.7643 0.460102H24.6852C24.6061 0.460102 24.6061 0.381572 24.527 0.381572C24.3688 0.303072 24.2106 0.303091 24.0524 0.303091C23.8943 0.303091 23.8152 0.224609 23.657 0.224609C23.657 0.224609 23.657 0.224609 23.5779 0.224609C23.5779 0.224609 23.5779 0.224609 23.4988 0.224609C23.3406 0.224609 23.1824 0.224609 23.1033 0.224609C23.1033 0.224609 22.9451 0.224609 22.7078 0.224609C22.4705 0.30311 22.3914 0.303091 22.3123 0.303091C22.2332 0.303091 22.1541 0.381572 21.9959 0.381572C21.9959 0.381572 21.9959 0.381572 21.9168 0.381572C21.6004 0.538574 21.284 0.695585 20.9677 0.931087L17.5665 3.67861C17.4874 3.67861 5.93916 13.0987 1.90519 16.3957C0.639635 17.4162 0.00686118 19.3003 0.797835 20.6348C3.01256 24.1673 6.49284 21.7338 6.49284 21.7338ZM23.4988 2.26561H23.5779C23.657 2.26561 23.657 2.26561 23.7361 2.26561C23.8152 2.26561 23.8943 2.26561 23.8943 2.26561C23.8943 2.26561 23.8943 2.26561 23.9734 2.26561C23.9734 2.26561 23.9733 2.26561 24.0524 2.26561C24.0524 2.26561 24.0525 2.26561 24.1315 2.26561C24.2106 2.26561 24.2106 2.34409 24.2897 2.34409C24.3688 2.42259 24.4479 2.5011 24.527 2.5011L43.3522 17.8873C44.0641 18.4368 44.0641 19.2218 43.6686 19.6928C43.2731 20.1638 42.4821 20.2423 41.7703 19.6928L24.2106 5.24863C23.8152 4.93462 23.1824 4.93462 22.7869 5.24863L5.22728 19.6928C4.51541 20.2423 3.72443 20.1638 3.32895 19.6928C2.93346 19.2218 3.01256 18.4368 3.64534 17.8873L22.4705 2.5011C22.5496 2.4226 22.7078 2.34411 22.7869 2.26561C22.7869 2.26561 22.866 2.26563 22.866 2.18713C22.866 2.18713 22.866 2.18713 22.9451 2.18713C22.9451 2.18713 22.9451 2.1871 23.0242 2.1086C23.1033 2.1086 23.1824 2.1086 23.1824 2.1086C23.1033 2.1086 23.1824 2.1086 23.3406 2.1086C23.4988 2.3441 23.4988 2.26561 23.4988 2.26561ZM15.0354 5.87662L2.22158 16.3957C2.14249 16.4742 2.14249 16.4742 2.06339 16.5527L15.0354 5.87662ZM23.4988 7.83914L38.1318 19.8498L38.2109 44.4624H8.78666V42.2225C8.86576 41.987 8.86576 41.7515 8.78666 41.516V19.7713L23.4988 7.83914ZM15.5099 26.2868C14.9563 26.3653 14.4817 26.8363 14.4817 27.3858V41.359C14.4817 41.987 14.9563 42.4579 15.589 42.4579H31.4085C32.0413 42.4579 32.5159 41.987 32.5159 41.359V27.3858C32.5159 26.7578 32.0413 26.2868 31.4085 26.2868H15.589H15.5099ZM16.6964 28.4849H22.3914V33.1949H16.6964V28.4849ZM24.6061 28.4849H30.3011V33.1949H24.6061V28.4849ZM16.6964 35.4714H22.3914V40.3384H16.6964V35.4714ZM24.6061 35.4714H30.3011V40.3384H24.6061V35.4714Z" fill="#FEE8EA"/>
<path d="M58.1203 0.486206H3.55934H58.1203ZM3.55934 0.486206V3.04201V17.599H2.11475C1.89251 17.599 1.78139 17.599 1.55914 17.7101C1.3369 17.8213 1.22578 17.9324 1.11465 18.0435C1.00353 18.1546 0.892411 18.3769 0.781289 18.488C0.670166 18.7102 0.670166 18.8214 0.670166 19.0436V24.7108C0.670166 24.9331 0.670166 25.0442 0.781289 25.2664C0.892411 25.4887 1.00353 25.5998 1.11465 25.7109C1.22578 25.822 1.44802 25.9332 1.55914 26.0443C1.78139 26.1554 1.89251 26.1554 2.11475 26.1554H59.5649C59.7871 26.1554 59.8983 26.1554 60.1205 26.0443C60.3427 25.9332 60.4539 25.822 60.565 25.7109C60.6761 25.5998 60.7872 25.3776 60.8983 25.2664C61.0095 25.0442 61.0095 24.9331 61.0095 24.7108V19.0436C61.0095 18.8214 61.0095 18.7102 60.8983 18.488C60.7872 18.2657 60.6761 18.1546 60.565 18.0435C60.4539 17.9324 60.2316 17.8213 60.1205 17.7101C59.8983 17.599 59.7871 17.599 59.5649 17.599H58.1203V0.486206H3.55934ZM52.4531 17.599V3.37538H55.3422V17.599H52.4531ZM46.6747 17.599V3.37538H49.5639V17.599H46.6747ZM40.8964 17.599V3.37538H43.7855V17.599H40.8964ZM35.2291 17.599V3.37538H38.1183V17.599H35.2291ZM29.4508 17.599V3.37538H32.34V17.599H29.4508ZM23.6724 17.599V3.37538H26.5616V17.599H23.6724ZM18.0052 17.599V3.37538H20.8944V17.599H18.0052ZM12.2269 17.599V3.37538H15.116V17.599H12.2269ZM6.44852 3.37538H9.33769V17.599H6.44852V3.37538ZM58.1203 23.2662H3.55934V20.3771H58.1203V23.2662Z" fill="#FEE8EA"/>
</svg>
