<svg width="62" height="27" viewBox="0 0 62 27" fill="none" xmlns="http://www.w3.org/2000/svg">
<path d="M58.1203 0.486206H3.55934H58.1203ZM3.55934 0.486206V3.04201V17.599H2.11475C1.89251 17.599 1.78139 17.599 1.55914 17.7101C1.3369 17.8213 1.22578 17.9324 1.11465 18.0435C1.00353 18.1546 0.892411 18.3769 0.781289 18.488C0.670166 18.7102 0.670166 18.8214 0.670166 19.0436V24.7108C0.670166 24.9331 0.670166 25.0442 0.781289 25.2664C0.892411 25.4887 1.00353 25.5998 1.11465 25.7109C1.22578 25.822 1.44802 25.9332 1.55914 26.0443C1.78139 26.1554 1.89251 26.1554 2.11475 26.1554H59.5649C59.7871 26.1554 59.8983 26.1554 60.1205 26.0443C60.3427 25.9332 60.4539 25.822 60.565 25.7109C60.6761 25.5998 60.7872 25.3776 60.8983 25.2664C61.0095 25.0442 61.0095 24.9331 61.0095 24.7108V19.0436C61.0095 18.8214 61.0095 18.7102 60.8983 18.488C60.7872 18.2657 60.6761 18.1546 60.565 18.0435C60.4539 17.9324 60.2316 17.8213 60.1205 17.7101C59.8983 17.599 59.7871 17.599 59.5649 17.599H58.1203V0.486206H3.55934ZM52.4531 17.599V3.37538H55.3422V17.599H52.4531ZM46.6747 17.599V3.37538H49.5639V17.599H46.6747ZM40.8964 17.599V3.37538H43.7855V17.599H40.8964ZM35.2291 17.599V3.37538H38.1183V17.599H35.2291ZM29.4508 17.599V3.37538H32.34V17.599H29.4508ZM23.6724 17.599V3.37538H26.5616V17.599H23.6724ZM18.0052 17.599V3.37538H20.8944V17.599H18.0052ZM12.2269 17.599V3.37538H15.116V17.599H12.2269ZM6.44852 3.37538H9.33769V17.599H6.44852V3.37538ZM58.1203 23.2662H3.55934V20.3771H58.1203V23.2662Z" fill="#FEE8EA"/>
</svg>
