<svg width="62" height="71" viewBox="0 0 62 71" fill="none" xmlns="http://www.w3.org/2000/svg">
<g clip-path="url(#clip0)">
<path d="M58.1203 44.4862H3.55934H58.1203ZM3.55934 44.4862V47.042V61.599H2.11475C1.89251 61.599 1.78139 61.599 1.55914 61.7101C1.3369 61.8213 1.22578 61.9324 1.11465 62.0435C1.00353 62.1546 0.892411 62.3769 0.781289 62.488C0.670166 62.7102 0.670166 62.8214 0.670166 63.0436V68.7108C0.670166 68.9331 0.670166 69.0442 0.781289 69.2664C0.892411 69.4887 1.00353 69.5998 1.11465 69.7109C1.22578 69.822 1.44802 69.9332 1.55914 70.0443C1.78139 70.1554 1.89251 70.1554 2.11475 70.1554H59.5649C59.7871 70.1554 59.8983 70.1554 60.1205 70.0443C60.3427 69.9332 60.4539 69.822 60.565 69.7109C60.6761 69.5998 60.7872 69.3776 60.8983 69.2664C61.0095 69.0442 61.0095 68.9331 61.0095 68.7108V63.0436C61.0095 62.8214 61.0095 62.7102 60.8983 62.488C60.7872 62.2657 60.6761 62.1546 60.565 62.0435C60.4539 61.9324 60.2316 61.8213 60.1205 61.7101C59.8983 61.599 59.7871 61.599 59.5649 61.599H58.1203V44.4862H3.55934ZM52.4531 61.599V47.3754H55.3422V61.599H52.4531ZM46.6747 61.599V47.3754H49.5639V61.599H46.6747ZM40.8964 61.599V47.3754H43.7855V61.599H40.8964ZM35.2291 61.599V47.3754H38.1183V61.599H35.2291ZM29.4508 61.599V47.3754H32.34V61.599H29.4508ZM23.6724 61.599V47.3754H26.5616V61.599H23.6724ZM18.0052 61.599V47.3754H20.8944V61.599H18.0052ZM12.2269 61.599V47.3754H15.116V61.599H12.2269ZM6.44852 47.3754H9.33769V61.599H6.44852V47.3754ZM58.1203 67.2662H3.55934V64.3771H58.1203V67.2662Z" fill="#FEE8EA"/>
</g>
<g clip-path="url(#clip1)">
<path d="M14.4928 21.7338L14.5719 45.6399C14.5719 46.2679 15.0465 46.7389 15.6793 46.7389H47.3182C47.951 46.7389 48.4256 46.2679 48.4256 45.6399L48.3465 21.6553C49.8493 22.8328 52.1432 22.8328 53.3296 21.3413C54.5952 19.8498 54.1997 17.6517 52.6969 16.3957L33.8717 1.00962C33.5553 0.774114 33.318 0.538603 32.9225 0.460102C32.9225 0.460102 32.9225 0.460102 32.8434 0.460102C32.8434 0.460102 32.8434 0.460102 32.7643 0.460102H32.6852C32.6061 0.460102 32.6061 0.381572 32.527 0.381572C32.3688 0.303072 32.2106 0.303091 32.0524 0.303091C31.8943 0.303091 31.8152 0.224609 31.657 0.224609C31.657 0.224609 31.657 0.224609 31.5779 0.224609C31.5779 0.224609 31.5779 0.224609 31.4988 0.224609C31.3406 0.224609 31.1824 0.224609 31.1033 0.224609C31.1033 0.224609 30.9451 0.224609 30.7078 0.224609C30.4705 0.30311 30.3914 0.303091 30.3123 0.303091C30.2332 0.303091 30.1541 0.381572 29.9959 0.381572C29.9959 0.381572 29.9959 0.381572 29.9168 0.381572C29.6004 0.538574 29.284 0.695585 28.9677 0.931087L25.5665 3.67861C25.4874 3.67861 13.9392 13.0987 9.90519 16.3957C8.63963 17.4162 8.00686 19.3003 8.79783 20.6348C11.0126 24.1673 14.4928 21.7338 14.4928 21.7338ZM31.4988 2.26561H31.5779C31.657 2.26561 31.657 2.26561 31.7361 2.26561C31.8152 2.26561 31.8943 2.26561 31.8943 2.26561C31.8943 2.26561 31.8943 2.26561 31.9734 2.26561C31.9734 2.26561 31.9733 2.26561 32.0524 2.26561C32.0524 2.26561 32.0525 2.26561 32.1315 2.26561C32.2106 2.26561 32.2106 2.34409 32.2897 2.34409C32.3688 2.42259 32.4479 2.5011 32.527 2.5011L51.3522 17.8873C52.0641 18.4368 52.0641 19.2218 51.6686 19.6928C51.2731 20.1638 50.4821 20.2423 49.7703 19.6928L32.2106 5.24863C31.8152 4.93462 31.1824 4.93462 30.7869 5.24863L13.2273 19.6928C12.5154 20.2423 11.7244 20.1638 11.3289 19.6928C10.9335 19.2218 11.0126 18.4368 11.6453 17.8873L30.4705 2.5011C30.5496 2.4226 30.7078 2.34411 30.7869 2.26561C30.7869 2.26561 30.866 2.26563 30.866 2.18713C30.866 2.18713 30.866 2.18713 30.9451 2.18713C30.9451 2.18713 30.9451 2.1871 31.0242 2.1086C31.1033 2.1086 31.1824 2.1086 31.1824 2.1086C31.1033 2.1086 31.1824 2.1086 31.3406 2.1086C31.4988 2.3441 31.4988 2.26561 31.4988 2.26561ZM23.0354 5.87662L10.2216 16.3957C10.1425 16.4742 10.1425 16.4742 10.0634 16.5527L23.0354 5.87662ZM31.4988 7.83914L46.1318 19.8498L46.2109 44.4624H16.7867V42.2225C16.8658 41.987 16.8658 41.7515 16.7867 41.516V19.7713L31.4988 7.83914ZM23.5099 26.2868C22.9563 26.3653 22.4817 26.8363 22.4817 27.3858V41.359C22.4817 41.987 22.9563 42.4579 23.589 42.4579H39.4085C40.0413 42.4579 40.5159 41.987 40.5159 41.359V27.3858C40.5159 26.7578 40.0413 26.2868 39.4085 26.2868H23.589H23.5099ZM24.6964 28.4849H30.3914V33.1949H24.6964V28.4849ZM32.6061 28.4849H38.3011V33.1949H32.6061V28.4849ZM24.6964 35.4714H30.3914V40.3384H24.6964V35.4714ZM32.6061 35.4714H38.3011V40.3384H32.6061V35.4714Z" fill="#FEE8EA"/>
</g>
<defs>
<clipPath id="clip0">
<rect width="60.4504" height="25.7803" fill="white" transform="translate(0.782227 44.4862)"/>
</clipPath>
<clipPath id="clip1">
<rect width="45.5601" height="50.0049" fill="white" transform="translate(8.56079 0.0373535)"/>
</clipPath>
</defs>
</svg>
