<svg width="31" height="28" viewBox="0 0 31 28" xmlns="http://www.w3.org/2000/svg">
<path d="M28.5832 0.00258264C28.1843 0.0211373 27.8086 0.137104 27.4746 0.266987H27.4699C27.1313 0.401508 25.5217 1.07875 23.0771 2.1039C20.6325 3.13369 17.4597 4.46962 14.31 5.79628C8.01999 8.44497 1.83664 11.0519 1.83664 11.0519L1.91086 11.0241C1.91086 11.0241 1.4841 11.1632 1.03879 11.4694C0.811497 11.6178 0.561008 11.8219 0.342992 12.142C0.124974 12.4621 -0.0512962 12.9538 0.0136458 13.4594C0.120336 14.3175 0.676976 14.8324 1.0759 15.1154C1.47947 15.403 1.86448 15.5375 1.86448 15.5375H1.87375L7.67209 17.4904C7.93186 18.3253 9.43943 23.2794 9.80124 24.4206C10.0146 25.1024 10.2234 25.5292 10.4831 25.8539C10.6084 26.0209 10.7568 26.1601 10.9331 26.2714C11.0027 26.3131 11.0769 26.3456 11.1511 26.3734C11.1743 26.3873 11.1975 26.392 11.2253 26.3966L11.165 26.3827C11.1836 26.3873 11.1975 26.4013 11.2114 26.4059C11.2578 26.4198 11.2903 26.4245 11.3506 26.4337C12.269 26.7121 13.0066 26.1415 13.0066 26.1415L13.0483 26.109L16.4717 22.9918L22.2097 27.3939L22.3396 27.4496C23.5364 27.9738 24.747 27.6815 25.3872 27.1666C26.032 26.6471 26.2824 25.9838 26.2824 25.9838L26.3242 25.8771L30.7588 3.16152C30.884 2.60024 30.9165 2.07607 30.7773 1.56581C30.6382 1.05556 30.281 0.577778 29.8496 0.322651C29.4135 0.0628851 28.9822 -0.0159721 28.5832 0.00258264ZM28.4626 2.43789C28.458 2.5121 28.4719 2.50283 28.4394 2.64662V2.66054L24.0466 25.1395C24.0281 25.172 23.9956 25.2416 23.9074 25.3112C23.8147 25.3854 23.7405 25.4318 23.3554 25.2787L16.3371 19.8978L12.0974 23.7619L12.988 18.0748C12.988 18.0748 23.9817 7.82802 24.4548 7.38735C24.928 6.94667 24.7702 6.8539 24.7702 6.8539C24.8027 6.31581 24.0559 6.69619 24.0559 6.69619L9.59714 15.6535L9.5925 15.6303L2.66233 13.297V13.2924C2.65769 13.2924 2.64841 13.2877 2.64377 13.2877C2.64841 13.2877 2.68088 13.2738 2.68088 13.2738L2.71799 13.2553L2.7551 13.2414C2.7551 13.2414 8.94309 10.6344 15.2331 7.98574C18.3828 6.65908 21.5556 5.32314 23.9956 4.29335C26.4355 3.26821 28.24 2.51674 28.342 2.47499C28.4394 2.43789 28.393 2.43789 28.4626 2.43789Z"/>
</svg>
