<svg width="60" height="18" viewBox="0 0 60 18" fill="none" xmlns="http://www.w3.org/2000/svg">
<path d="M50.3931 0.968435H42.5472C42.4873 0.968435 42.4873 1.02781 42.4274 1.02781C40.2713 1.20595 38.5943 2.92792 38.5943 5.12491V6.2531H32.4852V5.12491C32.4852 3.93735 33.4435 2.92792 34.7013 2.92792C35.2403 2.92792 35.6595 2.51227 35.6595 2.03724C35.6595 1.50284 35.2403 1.08719 34.7612 1.08719C32.4852 1.08719 30.6885 2.92792 30.6885 5.12491V14.7442C30.6885 14.8036 30.6885 14.8629 30.6885 14.9223C29.7302 15.5161 28.8318 16.0505 27.035 16.0505C25.1784 16.0505 24.3399 15.5161 23.3217 14.8629C22.2436 14.2098 20.9859 13.3785 18.5902 13.3785C16.1945 13.3785 14.9966 14.1504 13.8587 14.8629C12.8405 15.5161 12.002 16.0505 10.1453 16.0505C8.28865 16.0505 7.45015 15.5161 6.43198 14.8629C5.29402 14.1504 4.09617 13.3785 1.70047 13.3785C1.16143 13.3785 0.742188 13.7941 0.742188 14.3285C0.742188 14.8629 1.16143 15.2786 1.70047 15.2786C3.55714 15.2786 4.39563 15.813 5.41381 16.4662C6.49187 17.1787 7.74962 17.9506 10.1453 17.9506C12.541 17.9506 13.7389 17.1787 14.8768 16.4662C15.895 15.813 16.7335 15.2786 18.5902 15.2786C20.4468 15.2786 21.2853 15.813 22.3035 16.4662C23.3816 17.1787 24.6393 17.9506 27.035 17.9506C29.4307 17.9506 30.6286 17.1787 31.7665 16.4662C32.7847 15.813 33.6232 15.2786 35.4799 15.2786C37.3365 15.2786 38.175 15.813 39.1932 16.4662C40.2713 17.1787 41.529 17.9506 43.9247 17.9506C46.3204 17.9506 47.5183 17.1787 48.6562 16.4662C49.6744 15.813 50.5129 15.2786 52.3696 15.2786C52.9086 15.2786 53.3279 14.8629 53.3279 14.3285C53.3279 13.7941 52.9086 13.3785 52.3696 13.3785C49.9739 13.3785 48.776 14.1504 47.6381 14.8629C46.6199 15.5161 45.7814 16.0505 43.9247 16.0505C42.3076 16.0505 41.4092 15.6349 40.5707 15.1005C40.5707 15.0411 40.5707 14.9817 40.5707 14.8629V5.06553C40.5707 3.81859 41.5889 2.80916 42.7868 2.80916H58.1792C58.7182 2.80916 59.1374 2.39351 59.1374 1.85911C59.1374 1.3247 58.7182 0.909058 58.1792 0.909058H52.3696L50.3931 0.968435ZM38.5943 14.0316C37.8756 13.5566 36.7975 13.3785 35.42 13.3785C34.1622 13.4379 33.204 13.616 32.5451 13.9129V11.894H38.6542V14.0316H38.5943ZM38.5943 10.0533H32.4852V12.0128H38.5943V10.0533ZM38.5943 10.1721H32.4852V8.09382H38.5943V10.1721Z" fill="#FEE8EA"/>
</svg>
