<svg width="105" height="68" viewBox="0 0 105 68" fill="none" xmlns="http://www.w3.org/2000/svg">
<path d="M83.0647 0.909019C82.8813 0.907366 82.747 0.930671 82.6952 0.934805C82.6977 0.934606 82.5555 0.919005 82.3257 0.96059C82.1288 0.997381 82.0184 1.0446 81.9562 1.06393C81.9475 1.06383 81.9387 1.06383 81.9299 1.06393C81.8688 1.08369 81.7838 1.11809 81.666 1.16728C81.6557 1.17141 81.6503 1.16232 81.6396 1.16728V1.19306C81.6329 1.19367 81.6312 1.17504 81.5868 1.19306C81.5781 1.19296 81.5693 1.19296 81.5605 1.19306C81.2424 1.32801 80.9613 1.51583 80.6896 1.73562L77.4963 4.29342C77.4025 4.26298 77.3047 4.24558 77.206 4.24175L40.8651 4.21596C40.8299 4.21424 40.7947 4.21424 40.7595 4.21596C40.6205 4.2311 40.4858 4.27316 40.3635 4.33969C40.2412 4.40622 40.1336 4.4959 40.047 4.6035L29.9126 16.5914C29.7887 16.743 29.7109 16.9257 29.6881 17.1186C29.6654 17.3115 29.6986 17.5068 29.784 17.6821C29.8694 17.8573 30.0035 18.0055 30.1709 18.1096C30.3384 18.2137 30.5324 18.2695 30.7308 18.2706H32.3406V39.8438C32.3406 40.1179 32.4519 40.3807 32.6498 40.5745C32.8478 40.7683 33.1163 40.8772 33.3963 40.8772H54.615C54.7101 40.8989 54.8078 40.9075 54.9053 40.9029H61.3449C61.4511 40.91 61.5579 40.9014 61.6616 40.8772H67.0191V46.3286C67.0191 46.6027 67.1303 46.8656 67.3283 47.0594C67.5263 47.2532 67.7948 47.362 68.0747 47.3621H97.8705C98.1505 47.362 98.419 47.2532 98.617 47.0594C98.8149 46.8656 98.9262 46.6027 98.9262 46.3286L98.8734 20.9839C100.309 22.1081 102.438 22.0514 103.598 20.6738C104.766 19.286 104.426 17.2106 102.991 16.0492L85.2554 1.73647C84.9838 1.51668 84.7026 1.32887 84.3846 1.19392C84.367 1.19349 84.3494 1.19349 84.3318 1.19392C84.3144 1.18484 84.2968 1.17625 84.279 1.16814C84.2705 1.16483 84.2013 1.15434 84.1734 1.14235C84.1279 1.12251 84.1193 1.09656 84.0151 1.06489C83.8322 1.00537 83.6956 0.983623 83.5664 0.961549C83.5576 0.961442 83.5489 0.961442 83.5401 0.961549C83.404 0.938648 83.296 0.919964 83.1706 0.909877C83.153 0.909447 83.1354 0.909447 83.1178 0.909877C83.1002 0.909447 83.0826 0.909447 83.065 0.909877L83.0647 0.909019ZM82.9856 2.97589C83.0152 2.97837 83.0397 2.97341 83.0647 2.97589C83.1074 2.98085 83.1523 2.99424 83.1966 3.00168C83.2803 3.01598 83.3345 3.02085 83.355 3.02746C83.3638 3.02757 83.3726 3.02757 83.3813 3.02746C83.3599 3.02085 83.4169 3.04622 83.4341 3.05325C83.4514 3.06069 83.4367 3.05903 83.4869 3.07903C83.5045 3.07946 83.5221 3.07946 83.5397 3.07903C83.5817 3.10796 83.6258 3.13389 83.6716 3.15654C83.7555 3.20193 83.8223 3.26713 83.9092 3.33739L101.644 17.65C102.288 18.1703 102.339 18.9065 101.961 19.3552C101.587 19.7997 100.809 19.9011 100.166 19.381L83.6457 5.99758C83.4564 5.84425 83.2184 5.76036 82.9727 5.76036C82.727 5.76036 82.489 5.84425 82.2997 5.99758L65.752 19.381C65.1041 19.905 64.3632 19.806 63.9837 19.3552C63.606 18.9065 63.6571 18.1703 64.3004 17.65L82.0355 3.33739C82.1392 3.2535 82.2247 3.18071 82.3258 3.1307C82.362 3.11542 82.3972 3.09817 82.4314 3.07903C82.449 3.07946 82.4666 3.07946 82.4842 3.07903C82.4846 3.07883 82.5179 3.05059 82.5897 3.02736C82.6978 2.99379 82.7416 2.99772 82.7217 3.00152C82.6557 3.01351 82.6873 3.01492 82.8536 3.00152C82.9548 2.99317 82.9733 2.97756 82.9856 2.97574L82.9856 2.97589ZM41.3664 6.28288L75.0157 6.30867L62.955 16.0486C62.8969 16.0956 62.8512 16.1537 62.7967 16.2036H33.397H33.0011L41.3672 6.28263L41.3664 6.28288ZM82.9594 8.14307L96.7623 19.3042C96.7622 19.3128 96.7622 19.3214 96.7623 19.33L96.8151 45.2948H69.1306V40.1534C69.1955 39.9516 69.1955 39.7352 69.1306 39.5334L69.157 19.3037L82.96 8.14256L82.9594 8.14307ZM34.4514 18.2707L61.6612 18.2965C61.5429 19.134 61.7633 19.9795 62.3474 20.6734C63.5014 22.0443 65.614 22.1028 67.0451 20.9835L67.0187 38.8098H62.4002V27.132C62.4003 27.1235 62.4003 27.1149 62.4002 27.1064C62.377 26.0379 61.6631 25.1839 60.843 24.7295C60.0231 24.2751 59.0728 24.1068 58.1247 24.1094C57.1766 24.1094 56.2236 24.2752 55.4063 24.7295C54.5891 25.1838 53.8732 26.0416 53.8492 27.1064C53.8491 27.1149 53.8491 27.1235 53.8492 27.132V38.8098H34.4512V18.2701L34.4514 18.2707ZM38.8059 24.7039C38.5446 24.7296 38.3025 24.8498 38.1268 25.0409C37.9512 25.2319 37.8545 25.4802 37.8558 25.7373V34.7026C37.8559 34.9767 37.9671 35.2395 38.1651 35.4333C38.363 35.6271 38.6315 35.736 38.9115 35.7361H49.257C49.5369 35.736 49.8054 35.6271 50.0034 35.4333C50.2014 35.2395 50.3126 34.9767 50.3126 34.7026V25.7373C50.3126 25.4632 50.2014 25.2004 50.0034 25.0066C49.8054 24.8128 49.5369 24.7039 49.257 24.7039H38.9115C38.8763 24.7022 38.8411 24.7022 38.8059 24.7039ZM75.4112 25.2723C75.1499 25.298 74.9077 25.4182 74.7321 25.6092C74.5564 25.8003 74.4598 26.0486 74.4611 26.3057V39.3014C74.4611 39.5755 74.5723 39.8383 74.7703 40.0321C74.9683 40.2259 75.2367 40.3348 75.5167 40.3348H90.4277C90.7077 40.3348 90.9762 40.2259 91.1741 40.0321C91.3721 39.8383 91.4833 39.5755 91.4834 39.3014V26.3057C91.4833 26.0316 91.3721 25.7688 91.1741 25.575C90.9762 25.3812 90.7077 25.2723 90.4277 25.2723H75.5167C75.4816 25.2705 75.4463 25.2705 75.4112 25.2723ZM58.1245 26.1765C58.7715 26.1765 59.4036 26.3256 59.7872 26.5382C60.1609 26.7453 60.2781 26.8695 60.2887 27.1324V27.1581V38.8103H55.9604V27.1581V27.1324C55.9711 26.8829 56.0591 26.7474 56.4355 26.5382C56.8222 26.3233 57.4776 26.1783 58.1245 26.1765H58.1245ZM39.9672 26.7707H43.0286V29.1476H39.9672V26.7707ZM45.1399 26.7707H48.2013V29.1476H45.1399V26.7707ZM76.5724 27.3391H81.9035V31.7055H76.5724V27.3391ZM84.0148 27.3391H89.3723V31.7055H84.0148V27.3391ZM39.9676 31.2145H43.029V33.669H39.9676V31.2145ZM45.1403 31.2145H48.2017V33.669H45.1403V31.2145ZM76.5728 33.7723H81.9039V38.2678H76.5728V33.7723ZM84.0152 33.7723H89.3727V38.2678H84.0152V33.7723Z" fill="#FEE8EA"/>
<g clip-path="url(#clip0)">
<path d="M54.3931 45.9684H46.5472C46.4873 45.9684 46.4873 46.0278 46.4274 46.0278C44.2713 46.2059 42.5943 47.9279 42.5943 50.1249V51.2531H36.4852V50.1249C36.4852 48.9373 37.4435 47.9279 38.7013 47.9279C39.2403 47.9279 39.6595 47.5123 39.6595 47.0372C39.6595 46.5028 39.2403 46.0872 38.7612 46.0872C36.4852 46.0872 34.6885 47.9279 34.6885 50.1249V59.7442C34.6885 59.8036 34.6885 59.8629 34.6885 59.9223C33.7302 60.5161 32.8318 61.0505 31.035 61.0505C29.1784 61.0505 28.3399 60.5161 27.3217 59.8629C26.2436 59.2098 24.9859 58.3785 22.5902 58.3785C20.1945 58.3785 18.9966 59.1504 17.8587 59.8629C16.8405 60.5161 16.002 61.0505 14.1453 61.0505C12.2886 61.0505 11.4502 60.5161 10.432 59.8629C9.29402 59.1504 8.09617 58.3785 5.70047 58.3785C5.16143 58.3785 4.74219 58.7941 4.74219 59.3285C4.74219 59.8629 5.16143 60.2786 5.70047 60.2786C7.55714 60.2786 8.39563 60.813 9.41381 61.4662C10.4919 62.1787 11.7496 62.9506 14.1453 62.9506C16.541 62.9506 17.7389 62.1787 18.8768 61.4662C19.895 60.813 20.7335 60.2786 22.5902 60.2786C24.4468 60.2786 25.2853 60.813 26.3035 61.4662C27.3816 62.1787 28.6393 62.9506 31.035 62.9506C33.4307 62.9506 34.6286 62.1787 35.7665 61.4662C36.7847 60.813 37.6232 60.2786 39.4799 60.2786C41.3365 60.2786 42.175 60.813 43.1932 61.4662C44.2713 62.1787 45.529 62.9506 47.9247 62.9506C50.3204 62.9506 51.5183 62.1787 52.6562 61.4662C53.6744 60.813 54.5129 60.2786 56.3696 60.2786C56.9086 60.2786 57.3279 59.8629 57.3279 59.3285C57.3279 58.7941 56.9086 58.3785 56.3696 58.3785C53.9739 58.3785 52.776 59.1504 51.6381 59.8629C50.6199 60.5161 49.7814 61.0505 47.9247 61.0505C46.3076 61.0505 45.4092 60.6349 44.5707 60.1005C44.5707 60.0411 44.5707 59.9817 44.5707 59.8629V50.0655C44.5707 48.8186 45.5889 47.8092 46.7868 47.8092H62.1792C62.7182 47.8092 63.1374 47.3935 63.1374 46.8591C63.1374 46.3247 62.7182 45.9091 62.1792 45.9091H56.3696L54.3931 45.9684ZM42.5943 59.0316C41.8756 58.5566 40.7975 58.3785 39.42 58.3785C38.1622 58.4379 37.204 58.616 36.5451 58.9129V56.894H42.6542V59.0316H42.5943ZM42.5943 55.0533H36.4852V57.0128H42.5943V55.0533ZM42.5943 55.1721H36.4852V53.0938H42.5943V55.1721Z" fill="#FEE8EA"/>
<path d="M5.70047 64.9695C7.55714 64.9695 8.39563 65.5039 9.41381 66.1571C10.4919 66.8696 11.7496 67.6415 14.1453 67.6415C16.541 67.6415 17.7389 66.8696 18.8768 66.1571C19.895 65.5039 20.7335 64.9695 22.5902 64.9695C24.4468 64.9695 25.2853 65.5039 26.3035 66.1571C27.3816 66.8696 28.6393 67.6415 31.035 67.6415C33.4307 67.6415 34.6286 66.8696 35.7665 66.1571C36.7847 65.5039 37.6232 64.9695 39.4799 64.9695C41.3365 64.9695 42.175 65.5039 43.1932 66.1571C44.2713 66.8696 45.529 67.6415 47.9247 67.6415C50.3204 67.6415 51.5183 66.8696 52.6562 66.1571C53.6744 65.5039 54.5129 64.9695 56.3696 64.9695C56.9086 64.9695 57.3279 64.5539 57.3279 64.0194C57.3279 63.485 56.9086 63.0694 56.3696 63.0694C53.9739 63.0694 52.776 63.8413 51.6381 64.5539C50.6199 65.207 49.7814 65.7414 47.9247 65.7414C46.0681 65.7414 45.2296 65.207 44.2114 64.5539C43.1333 63.9007 41.8756 63.0694 39.4799 63.0694C37.0842 63.0694 35.8863 63.8413 34.7484 64.5539C33.7302 65.207 32.8917 65.7414 31.035 65.7414C29.1784 65.7414 28.3399 65.207 27.3217 64.5539C26.2436 63.9007 24.9859 63.0694 22.5902 63.0694C20.1945 63.0694 18.9966 63.8413 17.8587 64.5539C16.8405 65.207 16.002 65.7414 14.1453 65.7414C12.2886 65.7414 11.4502 65.207 10.432 64.5539C9.29402 63.9007 8.09617 63.1288 5.70047 63.1288C5.16143 63.1288 4.74219 63.5444 4.74219 64.0788C4.74219 64.6132 5.16143 64.9695 5.70047 64.9695Z" fill="#FEE8EA"/>
<path d="M33.4308 45.1966C33.4308 44.6622 33.0115 44.2465 32.4725 44.2465H1.74759C1.20855 44.2465 0.789307 44.6622 0.789307 45.1966C0.789307 45.731 1.20855 46.1466 1.74759 46.1466H32.5324C33.0115 46.0872 33.4308 45.6716 33.4308 45.1966Z" fill="#FEE8EA"/>
</g>
<defs>
<clipPath id="clip0">
<rect width="62.2284" height="23.3356" fill="white" transform="translate(0.789307 44.2465)"/>
</clipPath>
</defs>
</svg>
