<svg width="76" height="48" viewBox="0 0 76 48" fill="none" xmlns="http://www.w3.org/2000/svg">
<path d="M54.0647 0.909019C53.8813 0.907366 53.747 0.930671 53.6952 0.934805C53.6977 0.934606 53.5555 0.919005 53.3257 0.96059C53.1288 0.997381 53.0184 1.0446 52.9562 1.06393C52.9475 1.06383 52.9387 1.06383 52.9299 1.06393C52.8688 1.08369 52.7838 1.11809 52.666 1.16728C52.6557 1.17141 52.6503 1.16232 52.6396 1.16728V1.19306C52.6329 1.19367 52.6312 1.17504 52.5868 1.19306C52.5781 1.19296 52.5693 1.19296 52.5605 1.19306C52.2424 1.32801 51.9613 1.51583 51.6896 1.73562L48.4963 4.29342C48.4025 4.26298 48.3047 4.24558 48.206 4.24175L11.8651 4.21596C11.8299 4.21424 11.7947 4.21424 11.7595 4.21596C11.6205 4.2311 11.4858 4.27316 11.3635 4.33969C11.2412 4.40622 11.1336 4.4959 11.047 4.6035L0.912627 16.5914C0.788681 16.743 0.710873 16.9257 0.688121 17.1186C0.665368 17.3115 0.698591 17.5068 0.783983 17.6821C0.869375 17.8573 1.00348 18.0055 1.17093 18.1096C1.33838 18.2137 1.5324 18.2695 1.73076 18.2706H3.3406V39.8438C3.34063 40.1179 3.45185 40.3807 3.64982 40.5745C3.84779 40.7683 4.11629 40.8772 4.39626 40.8772H25.615C25.7101 40.8989 25.8078 40.9075 25.9053 40.9029H32.3449C32.4511 40.91 32.5579 40.9014 32.6616 40.8772H38.0191V46.3286C38.0191 46.6027 38.1303 46.8656 38.3283 47.0594C38.5263 47.2532 38.7948 47.362 39.0747 47.3621H68.8705C69.1505 47.362 69.419 47.2532 69.617 47.0594C69.8149 46.8656 69.9262 46.6027 69.9262 46.3286L69.8734 20.9839C71.3094 22.1081 73.4379 22.0514 74.5975 20.6738C75.7658 19.286 75.4265 17.2106 73.9905 16.0492L56.2554 1.73647C55.9838 1.51668 55.7026 1.32887 55.3846 1.19392C55.367 1.19349 55.3494 1.19349 55.3318 1.19392C55.3144 1.18484 55.2968 1.17625 55.279 1.16814C55.2705 1.16483 55.2013 1.15434 55.1734 1.14235C55.1279 1.12251 55.1193 1.09656 55.0151 1.06489C54.8322 1.00537 54.6956 0.983623 54.5664 0.961549C54.5576 0.961442 54.5489 0.961442 54.5401 0.961549C54.404 0.938648 54.296 0.919964 54.1706 0.909877C54.153 0.909447 54.1354 0.909447 54.1178 0.909877C54.1002 0.909447 54.0826 0.909447 54.065 0.909877L54.0647 0.909019ZM53.9856 2.97589C54.0152 2.97837 54.0397 2.97341 54.0647 2.97589C54.1074 2.98085 54.1523 2.99424 54.1966 3.00168C54.2803 3.01598 54.3345 3.02085 54.355 3.02746C54.3638 3.02757 54.3726 3.02757 54.3813 3.02746C54.3599 3.02085 54.4169 3.04622 54.4341 3.05325C54.4514 3.06069 54.4367 3.05903 54.4869 3.07903C54.5045 3.07946 54.5221 3.07946 54.5397 3.07903C54.5817 3.10796 54.6258 3.13389 54.6716 3.15654C54.7555 3.20193 54.8223 3.26713 54.9092 3.33739L72.6443 17.65C73.2875 18.1703 73.3387 18.9065 72.961 19.3552C72.5868 19.7997 71.8094 19.9011 71.1663 19.381L54.6457 5.99758C54.4564 5.84425 54.2184 5.76036 53.9727 5.76036C53.727 5.76036 53.489 5.84425 53.2997 5.99758L36.752 19.381C36.1041 19.905 35.3632 19.806 34.9837 19.3552C34.606 18.9065 34.6571 18.1703 35.3004 17.65L53.0355 3.33739C53.1392 3.2535 53.2247 3.18071 53.3258 3.1307C53.362 3.11542 53.3972 3.09817 53.4314 3.07903C53.449 3.07946 53.4666 3.07946 53.4842 3.07903C53.4846 3.07883 53.5179 3.05059 53.5897 3.02736C53.6978 2.99379 53.7416 2.99772 53.7217 3.00152C53.6557 3.01351 53.6873 3.01492 53.8536 3.00152C53.9548 2.99317 53.9733 2.97756 53.9856 2.97574L53.9856 2.97589ZM12.3664 6.28288L46.0157 6.30867L33.955 16.0486C33.8969 16.0956 33.8512 16.1537 33.7967 16.2036H4.39698H4.00111L12.3672 6.28263L12.3664 6.28288ZM53.9594 8.14307L67.7623 19.3042C67.7622 19.3128 67.7622 19.3214 67.7623 19.33L67.8151 45.2948H40.1306V40.1534C40.1955 39.9516 40.1955 39.7352 40.1306 39.5334L40.157 19.3037L53.96 8.14256L53.9594 8.14307ZM5.45137 18.2707L32.6612 18.2965C32.5429 19.134 32.7633 19.9795 33.3474 20.6734C34.5014 22.0443 36.614 22.1028 38.0451 20.9835L38.0187 38.8098H33.4002V27.132C33.4003 27.1235 33.4003 27.1149 33.4002 27.1064C33.377 26.0379 32.6631 25.1839 31.843 24.7295C31.0231 24.2751 30.0728 24.1068 29.1247 24.1094C28.1766 24.1094 27.2236 24.2752 26.4063 24.7295C25.5891 25.1838 24.8732 26.0416 24.8492 27.1064C24.8491 27.1149 24.8491 27.1235 24.8492 27.132V38.8098H5.45121V18.2701L5.45137 18.2707ZM9.80593 24.7039C9.54464 24.7296 9.30252 24.8498 9.12684 25.0409C8.95116 25.2319 8.85454 25.4802 8.85584 25.7373V34.7026C8.85586 34.9767 8.96709 35.2395 9.16506 35.4333C9.36303 35.6271 9.63152 35.736 9.9115 35.7361H20.257C20.5369 35.736 20.8054 35.6271 21.0034 35.4333C21.2014 35.2395 21.3126 34.9767 21.3126 34.7026V25.7373C21.3126 25.4632 21.2014 25.2004 21.0034 25.0066C20.8054 24.8128 20.5369 24.7039 20.257 24.7039H9.9115C9.87633 24.7022 9.8411 24.7022 9.80593 24.7039ZM46.4112 25.2723C46.1499 25.298 45.9077 25.4182 45.7321 25.6092C45.5564 25.8003 45.4598 26.0486 45.4611 26.3057V39.3014C45.4611 39.5755 45.5723 39.8383 45.7703 40.0321C45.9683 40.2259 46.2367 40.3348 46.5167 40.3348H61.4277C61.7077 40.3348 61.9762 40.2259 62.1741 40.0321C62.3721 39.8383 62.4833 39.5755 62.4834 39.3014V26.3057C62.4833 26.0316 62.3721 25.7688 62.1741 25.575C61.9762 25.3812 61.7077 25.2723 61.4277 25.2723H46.5167C46.4816 25.2705 46.4463 25.2705 46.4112 25.2723ZM29.1245 26.1765C29.7715 26.1765 30.4036 26.3256 30.7872 26.5382C31.1609 26.7453 31.2781 26.8695 31.2887 27.1324V27.1581V38.8103H26.9604V27.1581V27.1324C26.9711 26.8829 27.0591 26.7474 27.4355 26.5382C27.8222 26.3233 28.4776 26.1783 29.1245 26.1765H29.1245ZM10.9672 26.7707H14.0286V29.1476H10.9672V26.7707ZM16.1399 26.7707H19.2013V29.1476H16.1399V26.7707ZM47.5724 27.3391H52.9035V31.7055H47.5724V27.3391ZM55.0148 27.3391H60.3723V31.7055H55.0148V27.3391ZM10.9676 31.2145H14.029V33.669H10.9676V31.2145ZM16.1403 31.2145H19.2017V33.669H16.1403V31.2145ZM47.5728 33.7723H52.9039V38.2678H47.5728V33.7723ZM55.0152 33.7723H60.3727V38.2678H55.0152V33.7723Z" fill="#FEE8EA"/>
<path d="M33.4308 1.19657C33.4308 0.662168 33.0115 0.246521 32.4725 0.246521H1.74759C1.20855 0.246521 0.789307 0.662168 0.789307 1.19657C0.789307 1.73098 1.20855 2.14662 1.74759 2.14662H32.5324C33.0115 2.08724 33.4308 1.6716 33.4308 1.19657Z" fill="#FEE8EA"/>
<path d="M50.3931 0.968435H42.5472C42.4873 0.968435 42.4873 1.02781 42.4274 1.02781C40.2713 1.20595 38.5943 2.92792 38.5943 5.12491V6.2531H32.4852V5.12491C32.4852 3.93735 33.4435 2.92792 34.7013 2.92792C35.2403 2.92792 35.6595 2.51227 35.6595 2.03724C35.6595 1.50284 35.2403 1.08719 34.7612 1.08719C32.4852 1.08719 30.6885 2.92792 30.6885 5.12491V14.7442C30.6885 14.8036 30.6885 14.8629 30.6885 14.9223C29.7302 15.5161 28.8318 16.0505 27.035 16.0505C25.1784 16.0505 24.3399 15.5161 23.3217 14.8629C22.2436 14.2098 20.9859 13.3785 18.5902 13.3785C16.1945 13.3785 14.9966 14.1504 13.8587 14.8629C12.8405 15.5161 12.002 16.0505 10.1453 16.0505C8.28865 16.0505 7.45015 15.5161 6.43198 14.8629C5.29402 14.1504 4.09617 13.3785 1.70047 13.3785C1.16143 13.3785 0.742188 13.7941 0.742188 14.3285C0.742188 14.8629 1.16143 15.2786 1.70047 15.2786C3.55714 15.2786 4.39563 15.813 5.41381 16.4662C6.49187 17.1787 7.74962 17.9506 10.1453 17.9506C12.541 17.9506 13.7389 17.1787 14.8768 16.4662C15.895 15.813 16.7335 15.2786 18.5902 15.2786C20.4468 15.2786 21.2853 15.813 22.3035 16.4662C23.3816 17.1787 24.6393 17.9506 27.035 17.9506C29.4307 17.9506 30.6286 17.1787 31.7665 16.4662C32.7847 15.813 33.6232 15.2786 35.4799 15.2786C37.3365 15.2786 38.175 15.813 39.1932 16.4662C40.2713 17.1787 41.529 17.9506 43.9247 17.9506C46.3204 17.9506 47.5183 17.1787 48.6562 16.4662C49.6744 15.813 50.5129 15.2786 52.3696 15.2786C52.9086 15.2786 53.3279 14.8629 53.3279 14.3285C53.3279 13.7941 52.9086 13.3785 52.3696 13.3785C49.9739 13.3785 48.776 14.1504 47.6381 14.8629C46.6199 15.5161 45.7814 16.0505 43.9247 16.0505C42.3076 16.0505 41.4092 15.6349 40.5707 15.1005C40.5707 15.0411 40.5707 14.9817 40.5707 14.8629V5.06553C40.5707 3.81859 41.5889 2.80916 42.7868 2.80916H58.1792C58.7182 2.80916 59.1374 2.39351 59.1374 1.85911C59.1374 1.3247 58.7182 0.909058 58.1792 0.909058H52.3696L50.3931 0.968435ZM38.5943 14.0316C37.8756 13.5566 36.7975 13.3785 35.42 13.3785C34.1622 13.4379 33.204 13.616 32.5451 13.9129V11.894H38.6542V14.0316H38.5943ZM38.5943 10.0533H32.4852V12.0128H38.5943V10.0533ZM38.5943 10.1721H32.4852V8.09382H38.5943V10.1721Z" fill="#FEE8EA"/>
<path d="M1.70047 1.9695C3.55714 1.9695 4.39563 2.50391 5.41381 3.15707C6.49187 3.86961 7.74962 4.64153 10.1453 4.64153C12.541 4.64153 13.7389 3.86961 14.8768 3.15707C15.895 2.50391 16.7335 1.9695 18.5902 1.9695C20.4468 1.9695 21.2853 2.50391 22.3035 3.15707C23.3816 3.86961 24.6393 4.64153 27.035 4.64153C29.4307 4.64153 30.6286 3.86961 31.7665 3.15707C32.7847 2.50391 33.6232 1.9695 35.4799 1.9695C37.3365 1.9695 38.175 2.50391 39.1932 3.15707C40.2713 3.86961 41.529 4.64153 43.9247 4.64153C46.3204 4.64153 47.5183 3.86961 48.6562 3.15707C49.6744 2.50391 50.5129 1.9695 52.3696 1.9695C52.9086 1.9695 53.3279 1.55385 53.3279 1.01945C53.3279 0.485044 52.9086 0.069397 52.3696 0.069397C49.9739 0.069397 48.776 0.841315 47.6381 1.55385C46.6199 2.20702 45.7814 2.74142 43.9247 2.74142C42.0681 2.74142 41.2296 2.20702 40.2114 1.55385C39.1333 0.900693 37.8756 0.069397 35.4799 0.069397C33.0842 0.069397 31.8863 0.841315 30.7484 1.55385C29.7302 2.20702 28.8917 2.74142 27.035 2.74142C25.1784 2.74142 24.3399 2.20702 23.3217 1.55385C22.2436 0.900693 20.9859 0.069397 18.5902 0.069397C16.1945 0.069397 14.9966 0.841315 13.8587 1.55385C12.8405 2.20702 12.002 2.74142 10.1453 2.74142C8.28865 2.74142 7.45016 2.20702 6.43198 1.55385C5.29402 0.900693 4.09617 0.128774 1.70047 0.128774C1.16143 0.128774 0.742188 0.544426 0.742188 1.07883C0.742188 1.61323 1.16143 1.9695 1.70047 1.9695Z" fill="#FEE8EA"/>
</svg>
