<svg width="54" height="5" viewBox="0 0 54 5" fill="none" xmlns="http://www.w3.org/2000/svg">
<path d="M1.70047 1.9695C3.55714 1.9695 4.39563 2.50391 5.41381 3.15707C6.49187 3.86961 7.74962 4.64153 10.1453 4.64153C12.541 4.64153 13.7389 3.86961 14.8768 3.15707C15.895 2.50391 16.7335 1.9695 18.5902 1.9695C20.4468 1.9695 21.2853 2.50391 22.3035 3.15707C23.3816 3.86961 24.6393 4.64153 27.035 4.64153C29.4307 4.64153 30.6286 3.86961 31.7665 3.15707C32.7847 2.50391 33.6232 1.9695 35.4799 1.9695C37.3365 1.9695 38.175 2.50391 39.1932 3.15707C40.2713 3.86961 41.529 4.64153 43.9247 4.64153C46.3204 4.64153 47.5183 3.86961 48.6562 3.15707C49.6744 2.50391 50.5129 1.9695 52.3696 1.9695C52.9086 1.9695 53.3279 1.55385 53.3279 1.01945C53.3279 0.485044 52.9086 0.069397 52.3696 0.069397C49.9739 0.069397 48.776 0.841315 47.6381 1.55385C46.6199 2.20702 45.7814 2.74142 43.9247 2.74142C42.0681 2.74142 41.2296 2.20702 40.2114 1.55385C39.1333 0.900693 37.8756 0.069397 35.4799 0.069397C33.0842 0.069397 31.8863 0.841315 30.7484 1.55385C29.7302 2.20702 28.8917 2.74142 27.035 2.74142C25.1784 2.74142 24.3399 2.20702 23.3217 1.55385C22.2436 0.900693 20.9859 0.069397 18.5902 0.069397C16.1945 0.069397 14.9966 0.841315 13.8587 1.55385C12.8405 2.20702 12.002 2.74142 10.1453 2.74142C8.28865 2.74142 7.45016 2.20702 6.43198 1.55385C5.29402 0.900693 4.09617 0.128774 1.70047 0.128774C1.16143 0.128774 0.742188 0.544426 0.742188 1.07883C0.742188 1.61323 1.16143 1.9695 1.70047 1.9695Z" fill="#FEE8EA"/>
</svg>
