<svg width="27" height="24" viewBox="0 0 27 24" xmlns="http://www.w3.org/2000/svg">
<path d="M24.9992 7.98697H20.1175L16.3925 0.551436C16.2735 0.314367 16.0651 0.134287 15.8133 0.0508128C15.5615 -0.0326616 15.2869 -0.0126932 15.0498 0.106325C14.8128 0.225343 14.6327 0.433662 14.5492 0.685454C14.4657 0.937245 14.4857 1.21188 14.6047 1.44895L17.8883 8.01616H8.11779L11.4014 1.44895C11.5204 1.21188 11.5404 0.937245 11.4569 0.685454C11.3734 0.433662 11.1934 0.225343 10.9563 0.106325C10.7192 -0.0126932 10.4446 -0.0326616 10.1928 0.0508128C9.94099 0.134287 9.73267 0.314367 9.61366 0.551436L5.88129 7.98697H0.999674C0.868395 7.98697 0.738402 8.01283 0.617115 8.06306C0.495829 8.1133 0.385626 8.18694 0.292798 8.27977C0.199969 8.3726 0.126334 8.4828 0.0760958 8.60408C0.0258575 8.72537 0 8.85536 0 8.98664V12.9999C0 13.1312 0.0258575 13.2612 0.0760958 13.3825C0.126334 13.5038 0.199969 13.614 0.292798 13.7068C0.385626 13.7996 0.495829 13.8733 0.617115 13.9235C0.738402 13.9738 0.868395 13.9996 0.999674 13.9996H1.72936L4.03883 23.2448C4.09331 23.4608 4.21839 23.6524 4.39421 23.7893C4.57004 23.9261 4.78653 24.0003 5.00932 24H21.0005C21.2232 24.0003 21.4397 23.9261 21.6156 23.7893C21.7914 23.6524 21.9165 23.4608 21.9709 23.2448L24.2804 13.9996H25.0101C25.2752 13.9996 25.5295 13.8943 25.717 13.7068C25.9045 13.5193 26.0098 13.2651 26.0098 12.9999V8.98664C26.0098 8.85444 25.9836 8.72354 25.9326 8.60154C25.8817 8.47953 25.8071 8.36884 25.7131 8.27587C25.6191 8.1829 25.5076 8.10949 25.3851 8.0599C25.2625 8.01031 25.1313 7.98552 24.9992 7.98697ZM2.01394 9.98632H24.0141V12.0003H1.99935L2.01394 9.98632ZM20.2197 22.0007H5.77914L3.77979 13.9996H22.219L20.2197 22.0007Z"/>
</svg>
