<svg width="24" height="24" viewBox="0 0 24 24" xmlns="http://www.w3.org/2000/svg">
<path d="M16.0277 2.74617C12.3665 -0.915064 6.40754 -0.915064 2.74631 2.74617C-0.914133 6.40819 -0.914133 12.3663 2.74631 16.0284C6.00673 19.288 11.0847 19.6372 14.7435 17.0919C14.8205 17.4562 14.9967 17.8038 15.2801 18.0872L20.612 23.4191C21.389 24.1945 22.6446 24.1945 23.4176 23.4191C24.1938 22.6429 24.1938 21.3873 23.4176 20.6134L18.0857 15.2799C17.8039 14.999 17.4555 14.822 17.0912 14.745C19.6381 11.0853 19.2889 6.00818 16.0277 2.74617ZM14.3443 14.345C11.6109 17.0784 7.16232 17.0784 4.42969 14.345C1.69786 11.6115 1.69786 7.16377 4.42969 4.43035C7.16232 1.69772 11.6109 1.69772 14.3443 4.43035C17.0777 7.16377 17.0777 11.6115 14.3443 14.345Z"/>
</svg>
