<svg width="26" height="25" viewBox="0 0 26 25" fill="none" xmlns="http://www.w3.org/2000/svg">
<g clip-path="url(#clip0)">
<path d="M24.9992 8.98697H20.1175L16.3925 1.55144C16.2735 1.31437 16.0651 1.13429 15.8133 1.05081C15.5615 0.967338 15.2869 0.987307 15.0498 1.10633C14.8128 1.22534 14.6327 1.43366 14.5492 1.68545C14.4657 1.93725 14.4857 2.21188 14.6047 2.44895L17.8883 9.01616H8.11779L11.4014 2.44895C11.5204 2.21188 11.5404 1.93725 11.4569 1.68545C11.3734 1.43366 11.1934 1.22534 10.9563 1.10633C10.7192 0.987307 10.4446 0.967338 10.1928 1.05081C9.94099 1.13429 9.73268 1.31437 9.61366 1.55144L5.88129 8.98697H0.999674C0.868395 8.98697 0.738402 9.01283 0.617115 9.06306C0.495829 9.1133 0.385626 9.18694 0.292798 9.27977C0.199969 9.3726 0.126334 9.4828 0.0760958 9.60408C0.0258575 9.72537 0 9.85536 0 9.98664V13.9999C0 14.1312 0.0258575 14.2612 0.0760958 14.3825C0.126334 14.5038 0.199969 14.614 0.292798 14.7068C0.385626 14.7996 0.495829 14.8733 0.617115 14.9235C0.738402 14.9738 0.868395 14.9996 0.999674 14.9996H1.72936L4.03883 24.2448C4.09331 24.4608 4.21839 24.6524 4.39421 24.7893C4.57004 24.9261 4.78653 25.0003 5.00932 25H21.0005C21.2232 25.0003 21.4397 24.9261 21.6156 24.7893C21.7914 24.6524 21.9165 24.4608 21.9709 24.2448L24.2804 14.9996H25.0101C25.2752 14.9996 25.5295 14.8943 25.717 14.7068C25.9044 14.5193 26.0098 14.2651 26.0098 13.9999V9.98664C26.0098 9.85444 25.9836 9.72354 25.9326 9.60154C25.8817 9.47953 25.8071 9.36884 25.7131 9.27587C25.6191 9.1829 25.5076 9.10949 25.3851 9.0599C25.2625 9.01031 25.1313 8.98552 24.9992 8.98697ZM2.01394 10.9863H24.0141V13.0003H1.99935L2.01394 10.9863ZM20.2197 23.0007H5.77914L3.77979 14.9996H22.219L20.2197 23.0007Z" fill="white"/>
<path d="M12.9992 22.0013C13.2643 22.0013 13.5186 21.8959 13.7061 21.7085C13.8935 21.521 13.9989 21.2667 13.9989 21.0016V17.0138C13.9989 16.7487 13.8935 16.4944 13.7061 16.307C13.5186 16.1195 13.2643 16.0142 12.9992 16.0142C12.7341 16.0142 12.4798 16.1195 12.2923 16.307C12.1048 16.4944 11.9995 16.7487 11.9995 17.0138V21.0271C12.0062 21.2878 12.1144 21.5356 12.3012 21.7176C12.4879 21.8995 12.7384 22.0013 12.9992 22.0013Z" fill="white"/>
<path d="M16.7575 21.9714C16.8377 21.9901 16.9197 21.9999 17.002 22.0006C17.2246 21.9999 17.4406 21.9248 17.6158 21.7873C17.7909 21.6499 17.9152 21.4579 17.9688 21.2418L18.9685 17.2285C19.0074 17.099 19.0197 16.963 19.0045 16.8286C18.9894 16.6942 18.9471 16.5644 18.8803 16.4468C18.8136 16.3292 18.7236 16.2264 18.616 16.1446C18.5083 16.0628 18.3852 16.0037 18.254 15.9709C18.1229 15.938 17.9864 15.9321 17.8529 15.9535C17.7194 15.9749 17.5916 16.0232 17.4773 16.0954C17.363 16.1676 17.2645 16.2622 17.1878 16.3736C17.1111 16.4849 17.0578 16.6107 17.0311 16.7432L16.0278 20.7565C15.9648 21.0143 16.0061 21.2866 16.1428 21.5141C16.2794 21.7416 16.5003 21.906 16.7575 21.9714Z" fill="white"/>
<path d="M8.03013 21.2423C8.08329 21.4566 8.2059 21.6473 8.37882 21.7845C8.55174 21.9218 8.76525 21.998 8.98602 22.0012C9.06833 22.0005 9.1503 21.9907 9.23046 21.972C9.48765 21.9065 9.70858 21.7421 9.84522 21.5146C9.98187 21.2871 10.0232 21.0149 9.96015 20.7571L8.98602 16.7584C8.95932 16.6258 8.90602 16.5001 8.82933 16.3887C8.75264 16.2774 8.65416 16.1827 8.53984 16.1105C8.42553 16.0383 8.29775 15.9901 8.16425 15.9687C8.03075 15.9473 7.89429 15.9532 7.76314 15.986C7.63198 16.0189 7.50885 16.078 7.4012 16.1598C7.29355 16.2416 7.20361 16.3444 7.13682 16.4619C7.07003 16.5795 7.02779 16.7094 7.01264 16.8437C6.99749 16.9781 7.00976 17.1141 7.04869 17.2436L8.03013 21.2423Z" fill="white"/>
</g>
<defs>
<clipPath id="clip0">
<rect width="26" height="25" fill="white"/>
</clipPath>
</defs>
</svg>
