<svg width="30" height="31" viewBox="0 0 30 31" fill="none" xmlns="http://www.w3.org/2000/svg">
<path d="M11.7265 11.4527C12.0558 11.2108 12.2749 10.8476 12.3355 10.4434C12.3961 10.0393 12.2928 9.62774 12.0488 9.30016L10.4303 7.12574C10.2404 6.8705 9.9555 6.70311 9.64019 6.66119C9.32489 6.61928 9.00571 6.70618 8.75582 6.90281C8.45747 7.13762 8.12334 7.39979 7.80724 7.64595C7.02913 8.25199 6.73545 9.29135 7.07985 10.2155C8.97942 15.3129 12.9729 19.3554 18.0373 21.3201C19.0789 21.7242 20.2611 21.3063 20.8142 20.3356L21.436 19.2442C21.7416 18.708 21.5815 18.0268 21.0693 17.6827L19.0889 16.352C18.7427 16.1195 18.3169 16.0381 17.9094 16.1259C17.5018 16.2139 17.1467 16.4636 16.9274 16.8185C16.8627 16.9231 16.8001 17.0248 16.7416 17.1195C16.66 17.2518 16.5284 17.3455 16.3768 17.3792C16.2251 17.413 16.0661 17.384 15.9361 17.2989C14.0374 16.0554 12.4152 14.4306 11.1752 12.5293C11.007 12.2714 11.0715 11.9266 11.3218 11.7472C11.4464 11.6576 11.5847 11.5568 11.7265 11.4527Z" fill="#383838"/>
<path d="M22.103 14.2601C21.776 14.2601 21.5109 13.9949 21.5109 13.668C21.5109 9.77007 18.3397 6.59887 14.4418 6.59887C14.1147 6.59887 13.8496 6.33363 13.8496 6.00671C13.8496 5.67966 14.1149 5.41455 14.4418 5.41455C18.9927 5.41455 22.6952 9.11717 22.6952 13.668C22.6952 13.995 22.4302 14.2601 22.103 14.2601Z" fill="#383838"/>
<path d="M20.2482 14.2598C19.9212 14.2598 19.6561 13.9946 19.6561 13.6677C19.6561 10.793 17.3173 8.45434 14.4427 8.45434C14.1157 8.45434 13.8506 8.1891 13.8506 7.86218C13.8506 7.53513 14.1158 7.27002 14.4427 7.27002C17.9705 7.27002 20.8405 10.1401 20.8405 13.6678C20.8404 13.9947 20.5753 14.2598 20.2482 14.2598Z" fill="#383838"/>
<path d="M18.4246 14.2594C18.0975 14.2594 17.8324 13.9942 17.8324 13.6673C17.8324 11.7977 16.3113 10.2766 14.4418 10.2766C14.1147 10.2766 13.8496 10.0114 13.8496 9.68445C13.8496 9.3574 14.1149 9.09229 14.4418 9.09229C16.9645 9.09229 19.0169 11.1447 19.0169 13.6674C19.0169 13.9943 18.7516 14.2594 18.4246 14.2594Z" fill="#383838"/>
<path d="M29.4137 10.7403C29.4137 4.80858 24.6052 0 18.6734 0H11.0693C4.95582 0 0 4.95582 0 11.0693V15.8439C0 20.5605 2.9512 24.5855 7.10674 26.1798V29.9302C7.10674 30.3746 7.38654 30.7776 7.8029 30.933C7.92384 30.9782 8.04985 31 8.17466 31C8.47982 31 8.77924 30.8698 8.98588 30.6317L12.2115 26.9133H18.6735C24.6053 26.9133 29.4139 22.1048 29.4139 16.173L29.4137 10.7403ZM26.9133 16.173C26.9133 20.7165 23.217 24.4128 18.6735 24.4128H12.9453L8.53148 29.5455C8.47382 29.6125 8.38051 29.6365 8.29761 29.606C8.21471 29.5753 8.15958 29.4962 8.15958 29.4077C8.15958 28.3143 8.15958 25.858 8.15958 23.9034C4.86291 22.7095 2.50054 19.5478 2.50054 15.8441V11.0694C2.50054 6.34452 6.34452 2.50054 11.0694 2.50054H18.6737C23.2171 2.50054 26.9135 6.19688 26.9135 10.7403L26.9133 16.173Z" fill="#383838"/>
</svg>
